<svg xmlns="http://www.w3.org/2000/svg" xmlns:xlink="http://www.w3.org/1999/xlink" width="66.248" height="56.646" viewBox="0 0 66.248 56.646">
  <defs>
    <linearGradient id="linear-gradient" x1="0.5" x2="0.5" y2="1" gradientUnits="objectBoundingBox">
      <stop offset="0" stop-color="#ff0164"/>
      <stop offset="1" stop-color="#8624db"/>
    </linearGradient>
  </defs>
  <path id="balance" d="M65.264,34.543,57.708,18.357l3.262.936a1.349,1.349,0,0,0,.744-2.594L39.033,10.19c0-.1.007-.194.007-.292A5.915,5.915,0,0,0,27.962,7.013L5.279.505A1.349,1.349,0,1,0,4.535,3.1L9.011,4.384.9,21.748A1.35,1.35,0,0,0,0,23.021a10.82,10.82,0,0,0,18.486,7.638,10.694,10.694,0,0,0,3.228-7.638,1.35,1.35,0,0,0-.984-1.3L13.2,5.585,27.216,9.607c0,.1-.007.194-.007.292a5.925,5.925,0,0,0,4.567,5.759V42.389H28.05A5.422,5.422,0,0,0,22.6,47.754v.783a5.439,5.439,0,0,0-4.318,5.289v1.889a1.425,1.425,0,0,0,1.4,1.382H46.566a1.425,1.425,0,0,0,1.4-1.382V53.827a5.439,5.439,0,0,0-4.318-5.289v-.783A5.423,5.423,0,0,0,38.2,42.389H34.474V15.658a5.938,5.938,0,0,0,3.813-2.874l15.275,4.383-8.124,17.4a1.35,1.35,0,0,0-.9,1.273,10.82,10.82,0,0,0,18.486,7.638,10.7,10.7,0,0,0,3.229-7.638,1.35,1.35,0,0,0-.984-1.3ZM10.823,6.817l6.905,14.79H3.919Zm0,24.263a8.069,8.069,0,0,1-8.012-6.774H18.9a8.187,8.187,0,0,1-8.074,6.774ZM45.27,53.827V54.4H20.979v-.572a2.721,2.721,0,0,1,2.753-2.666H42.517a2.721,2.721,0,0,1,2.753,2.666Zm-4.318-6.073v.707H25.3v-.707a2.721,2.721,0,0,1,2.753-2.666H38.2a2.721,2.721,0,0,1,2.753,2.666ZM33.124,13.116a3.219,3.219,0,1,1,3.127-2.463,1.356,1.356,0,0,0-.076.264,3.222,3.222,0,0,1-3.051,2.2ZM62.262,34.427H48.452l6.9-14.79ZM55.357,43.9a8.069,8.069,0,0,1-8.012-6.774H63.43A8.187,8.187,0,0,1,55.357,43.9Zm0,0" transform="translate(0 -0.452)" fill="url(#linear-gradient)"/>
</svg>
