<svg xmlns="http://www.w3.org/2000/svg" xmlns:xlink="http://www.w3.org/1999/xlink" width="64.129" height="63.906" viewBox="0 0 64.129 63.906">
  <defs>
    <linearGradient id="linear-gradient" x1="0.5" x2="0.5" y2="1" gradientUnits="objectBoundingBox">
      <stop offset="0" stop-color="#ff0164"/>
      <stop offset="1" stop-color="#8624db"/>
    </linearGradient>
  </defs>
  <path id="Union_27" data-name="Union 27" d="M19.967,61.6c-.347-.355-.661-.74-1-1.107-1.857-2.039-1.758-4.211.319-6.047,1.947-1.722,3.926-3.408,5.891-5.11,1.3-1.128,2.6-2.267,3.907-3.385.851-.727,1.346-.68,2.085.151.523.587,1.042,1.177,1.642,1.854l2.917-2.463a15.014,15.014,0,0,1-2.672-5.735,15.243,15.243,0,0,1,4.056-14.365,14.156,14.156,0,0,1,11.512-4.556A15.283,15.283,0,0,1,62.751,39.331,14.51,14.51,0,0,1,52.086,50.867a14.288,14.288,0,0,1-14.065-3.134c-1.264-1.1-.841-1-2.075-.026-.616.488-1.2,1.022-1.861,1.594l1.653,1.969c.6.714.622,1.128-.059,1.717C32.192,56.009,28.713,59.044,25.171,62a3.662,3.662,0,0,1-2.361.908A3.991,3.991,0,0,1,19.967,61.6Zm9.714-13.455c-3.1,2.709-6.224,5.394-9.326,8.1a1.71,1.71,0,0,0-.558,2.2,14.669,14.669,0,0,0,2.275,2.461c.2.194.6.188,1.014.305a5.517,5.517,0,0,0,1.073-.583c3.108-2.656,6.195-5.336,9.293-8,.356-.307.412-.557.07-.939-1.012-1.132-1.99-2.294-2.975-3.45a.512.512,0,0,0-.866-.1Zm18.09-25.4A13.426,13.426,0,0,0,34.459,36.375,13.366,13.366,0,1,0,47.87,22.74ZM6.6,45.63c-2.874-.007-4.58-1.232-5.159-3.653a5.266,5.266,0,0,1-.112-1.214c-.008-4.531.009-9.06-.025-13.591a5.215,5.215,0,0,0-.434-1.44A9.8,9.8,0,0,1,.054,23.12C-.031,18.767.008,14.411.017,10.056A2.349,2.349,0,0,1,2.583,7.5c2.92-.013,5.841,0,8.558,0a25.087,25.087,0,0,1,1.428-3.983A6.615,6.615,0,0,1,18.556.026C21.217-.019,23.879.007,26.54.018a7.171,7.171,0,0,1,7.088,6.554c.025.284.066.568.109.923h6c.965,0,1.93-.013,2.894,0A2.344,2.344,0,0,1,45.154,9.86c.07,3.009.035,6.02.018,9.03,0,.66-.335,1.165-1.061,1.126-.7-.038-.867-.546-.863-1.184.015-2.777-.021-5.553.022-8.33.013-.862-.3-1.1-1.128-1.1q-7.37.044-14.74,0c-.685,0-.915.183-.908.887.032,3.185.017,6.372.012,9.557,0,1.386-.254,1.636-1.631,1.638q-2.368,0-4.738,0c-1.23,0-1.518-.281-1.524-1.58-.014-3.127-.037-6.255.016-9.382.015-.882-.213-1.137-1.116-1.128-4.854.046-9.71.038-14.564.006-.81,0-1.077.259-1.072,1.055.026,4.179,0,8.359.015,12.538a2.225,2.225,0,0,0,2.391,2.435q3.321.014,6.641.009c2.261,0,4.522,0,6.784.01.679,0,.832-.265.819-.888C18.5,23.292,18.811,23,20.057,23c1.638-.007,3.275-.009,4.913,0,1.127.008,1.472.293,1.416,1.385-.044.883.293,1.092,1.108,1.068,1.19-.035,2.38-.028,3.572-.022.564,0,1.128.007,1.692.006.63,0,1.209.069,1.229.887.023.857-.561.985-1.235.985l-5.176,0c-1.169,0-1.169,0-1.17,1.213,0,.409-.008.818,0,1.228a1.067,1.067,0,0,1-1.181,1.211c-1.842.018-3.684.009-5.526,0a1.094,1.094,0,0,1-1.178-1.228c-.016-.756,0-1.513,0-2.374H3.3c-.015.3-.044.6-.044.912q0,6.269,0,12.538a2.536,2.536,0,0,0,2.813,2.824q6.785,0,13.57,0h6.786c.321,0,.644-.013.965.014.582.05,1.142.181,1.164.918.023.773-.537.957-1.157,1.039a4.753,4.753,0,0,1-.613.031q-5.85,0-11.7.005Q10.841,45.639,6.6,45.63Zm14.041-17.2a.868.868,0,0,0,.573.618,22.154,22.154,0,0,0,2.8.007c.208-.011.566-.291.574-.458.05-1.186.026-2.375.026-3.61h-4C20.614,26.217,20.581,27.328,20.641,28.433ZM20.6,10.2c.029,2.306.011,4.614.011,6.92V19.5h3.9a1.5,1.5,0,0,0,.1-.326c.008-3.037,0-6.073.02-9.11,0-.51-.234-.662-.7-.654-.848.012-1.7.041-2.541-.009q-.063,0-.12,0C20.74,9.4,20.6,9.642,20.6,10.2ZM19.235,1.881a8.616,8.616,0,0,0-2.153.3,5.078,5.078,0,0,0-3.591,5.205H31.619a5.458,5.458,0,0,0,0-.64,5.379,5.379,0,0,0-5.464-4.876q-1.675-.017-3.35-.018Q21.018,1.854,19.235,1.881Zm20.377,42.2c-.308,0-.866-.382-.882-.615-.149-2.158-.264-4.325,1.1-6.232a6.976,6.976,0,0,1,4.845-2.869,5.8,5.8,0,0,1-2.121-5.425,5.192,5.192,0,0,1,2.04-3.36,5.448,5.448,0,0,1,7.435.726,5.622,5.622,0,0,1-.815,8.051c2.969.556,4.957,2.142,5.589,5.05a19.4,19.4,0,0,1,.18,3.83c.007.6-.387.873-.979.872H50.572Q45.092,44.113,39.612,44.085Zm5.946-7.745a4.773,4.773,0,0,0-4.8,5.834H54.969a4.75,4.75,0,0,0-4.587-5.832q-1.007-.008-2.013-.007C47.432,36.335,46.5,36.338,45.559,36.34ZM44.482,29.9a3.522,3.522,0,0,0,7.043.029,3.462,3.462,0,0,0-3.443-3.558H48.03A3.572,3.572,0,0,0,44.482,29.9Z" transform="translate(0.497 0.497)" stroke="rgba(0,0,0,0)" stroke-miterlimit="10" stroke-width="1" fill="url(#linear-gradient)"/>
</svg>
