<svg xmlns="http://www.w3.org/2000/svg" xmlns:xlink="http://www.w3.org/1999/xlink" width="215.621" height="97.416" viewBox="0 0 215.621 97.416">
  <defs>
    <linearGradient id="linear-gradient" x1="0.473" y1="-0.139" x2="0.535" y2="1.141" gradientUnits="objectBoundingBox">
      <stop offset="0.005" stop-color="#ff0164"/>
      <stop offset="0.341" stop-color="#e8087b"/>
      <stop offset="0.355" stop-color="#e3097f"/>
      <stop offset="0.477" stop-color="#c112a0"/>
      <stop offset="0.601" stop-color="#a71aba"/>
      <stop offset="0.727" stop-color="#941fcc"/>
      <stop offset="0.858" stop-color="#8922d7"/>
      <stop offset="1" stop-color="#8624db"/>
    </linearGradient>
  </defs>
  <g id="Group_121" data-name="Group 121" transform="translate(-35 -14)">
    <g id="Group_43" data-name="Group 43" transform="translate(35 14)">
      <g id="LOGO">
        <path id="Path_11" data-name="Path 11" d="M445.719,542.51c-1.226-7.89-11.855-8.911-22.134-9.9-.974-.094-1.941-.187-2.9-.285a32.483,32.483,0,0,0,4.541-8.035,28.756,28.756,0,0,0,1.862-13.27c-.095.077-.192.152-.288.227a28.171,28.171,0,0,1-1.834,12.836,32.1,32.1,0,0,1-4.7,8.2l-.821-.088a33.481,33.481,0,0,0,4.26-7.917,31.993,31.993,0,0,0,2.056-12.256c-.1.07-.2.144-.3.213a31.416,31.416,0,0,1-2.022,11.843,33.252,33.252,0,0,1-4.37,8.076q-.4-.045-.786-.092a35.454,35.454,0,0,0,3.9-7.8,36.454,36.454,0,0,0,2.143-11.3c-.1.061-.2.119-.307.179a35.862,35.862,0,0,1-2.1,10.931,34.96,34.96,0,0,1-4.021,7.943q-.385-.048-.764-.1a38.969,38.969,0,0,0,3.534-7.666,43.872,43.872,0,0,0,2.231-10.49c-.107.055-.212.113-.32.167a43.316,43.316,0,0,1-2.18,10.138,38.39,38.39,0,0,1-3.63,7.8q-.383-.053-.759-.109a45.469,45.469,0,0,0,3.141-7.522,56.171,56.171,0,0,0,2.246-9.752c-.107.047-.217.088-.325.133a55.671,55.671,0,0,1-2.192,9.442,44.793,44.793,0,0,1-3.216,7.646q-.383-.06-.759-.124a59.337,59.337,0,0,0,2.73-7.36,83.645,83.645,0,0,0,2.263-9.146l-.33.117a83.722,83.722,0,0,1-2.207,8.861,58.626,58.626,0,0,1-2.786,7.47q-.375-.067-.742-.138c.707-1.968,1.482-4.318,2.284-7.179.829-2.956,1.625-5.813,2.268-8.635-.113.033-.223.07-.336.1-.63,2.737-1.4,5.508-2.208,8.375-.816,2.91-1.6,5.29-2.321,7.275q-.372-.076-.734-.157c.257-1.008.549-2.127.878-3.382.286-1.091.6-2.284.936-3.594.454-1.759.934-3.469,1.4-5.124.293-1.043.579-2.071.855-3.089-.112.026-.226.048-.338.073q-.385,1.414-.794,2.858c-.465,1.657-.945,3.37-1.4,5.135-.338,1.309-.651,2.5-.936,3.592-.336,1.285-.636,2.43-.9,3.461q-.371-.088-.731-.183c.246-1.795.681-3.985,1.328-6.74s1.468-5.365,2.265-7.887c-.115.021-.23.039-.345.059-.776,2.46-1.569,5-2.2,7.693-.649,2.762-1.084,4.974-1.33,6.8q-.369-.1-.724-.213a32.528,32.528,0,0,1,.819-6.466,56.223,56.223,0,0,1,2.291-7.631l-.354.049a55.585,55.585,0,0,0-2.223,7.46,33.222,33.222,0,0,0-.824,6.5q-.371-.122-.724-.255a19.271,19.271,0,0,1,.317-6.135,37,37,0,0,1,2.338-7.43c-.121.013-.241.027-.362.04a36.8,36.8,0,0,0-2.265,7.282,20.261,20.261,0,0,0-.343,6.121q-.383-.154-.739-.322a13.168,13.168,0,0,1-.146-5.709,26.621,26.621,0,0,1,2.407-7.272c-.125.01-.249.023-.374.033a26.593,26.593,0,0,0-2.324,7.147,14.159,14.159,0,0,0,.075,5.623q-.424-.217-.806-.46a9.884,9.884,0,0,1-.5-5.09,20.672,20.672,0,0,1,2.5-7.147l-.386.025a20.706,20.706,0,0,0-2.411,7.047,11.152,11.152,0,0,0,.305,4.834,6.678,6.678,0,0,1-1.1-1,8.26,8.26,0,0,1-.433-3.778,16.7,16.7,0,0,1,2.622-7.045l-.113.006-.286.013a16.773,16.773,0,0,0-2.519,6.97,9.777,9.777,0,0,0,.15,3.029,5.6,5.6,0,0,1-.737-3.015c.051-2.544,1.3-4.74,3.041-6.981a15.442,15.442,0,0,1-3.145-.13c-1.721,2.245-2.939,4.473-2.992,7.1-.075,3.724,2.446,5.752,6.286,6.977l.025.013a9.44,9.44,0,0,0,.844.612,8.385,8.385,0,0,0,1.023.905,7.922,7.922,0,0,0,.668.754,7.63,7.63,0,0,0,.554.89,8.311,8.311,0,0,0,.341.923c.026.352.065.685.117,1-.065.413-.116.8-.151,1.175-.169.44-.323.857-.462,1.259-.3.5-.591.976-.859,1.437l-.051.063c-.43.526-.842,1.03-1.231,1.523-.585.579-1.147,1.138-1.677,1.688-.651.554-1.282,1.1-1.884,1.645-.877.67-1.721,1.331-2.514,2-4.726,3.357-8.427,6.627-8.978,11.215-.417,3.472,1.016,7.493,4.378,12.291,2.68,3.824,6.671,7.494,10.9,11.058-3.3,5.73-4.658,12.477-2.284,20.849.014.05.032.1.047.147a28.416,28.416,0,0,1,3.08-.143c-.017-.055-.037-.109-.053-.163-2.107-7.427-1.2-13.566,1.417-18.853l.852.7a28.246,28.246,0,0,0-1.854,18.319c.1,0,.208,0,.312,0a27.755,27.755,0,0,1,1.81-18.1l.866.709.166.136a30.137,30.137,0,0,0-1.7,17.312c.1.007.209.017.313.025a29.647,29.647,0,0,1,1.652-17.119l1.019.836A32.777,32.777,0,0,0,413,602.5c.1.012.208.026.312.039a32.278,32.278,0,0,1,1.457-16.214q.5.413,1,.825a36.669,36.669,0,0,0-1.272,15.553l.31.05a36.172,36.172,0,0,1,1.225-15.385q.49.407.974.813a43,43,0,0,0-.986,14.795c.1.021.2.039.307.06a42.479,42.479,0,0,1,.943-14.633q.476.4.942.8a54.377,54.377,0,0,0-.679,14.093l.306.071a53.832,53.832,0,0,1,.641-13.935q.455.391.9.782a80.862,80.862,0,0,0-.332,13.444l.3.077a80.135,80.135,0,0,1,.3-13.277q.43.38.848.758c-.086,3.829-.13,8.069.058,12.845.1.029.2.055.3.084-.189-4.7-.151-8.88-.068-12.663q.4.369.8.737c.263,3.74.395,7.782.482,12.3.1.033.2.068.3.1-.085-4.434-.211-8.414-.461-12.1q.339.322.667.643a65.056,65.056,0,0,1,1,11.886c.1.038.2.075.3.114a66.1,66.1,0,0,0-.922-11.629q.3.3.6.6a35.068,35.068,0,0,1,1.525,11.527c.1.045.2.092.3.138a35.516,35.516,0,0,0-1.35-11.173q.228.242.449.484a22.722,22.722,0,0,1,2.086,11.237c0,.018,0,.034-.006.052q.143.078.284.159c.005-.055.013-.106.018-.161a22.833,22.833,0,0,0-1.715-10.537l.167.194c2.069,3.418,3.193,6.914,2.742,10.6-.025.2-.059.4-.093.589.092.062.185.122.276.185.043-.227.081-.458.111-.7a15.825,15.825,0,0,0-1.812-9.148c2.305,3.091,3.547,6.2,3.008,9.381a9.384,9.384,0,0,1-.3,1.239c.088.073.173.15.259.226a10.152,10.152,0,0,0,.334-1.365c.657-3.888-1.168-7.609-4.3-11.3q-.609-1.005-1.32-2-.56-1.145-1.212-2.272-.454-1.215-.975-2.4-.294-1.169-.628-2.309-.185-1.56-.419-3.071c.013-.946.019-1.872.013-2.784.158-1.008.31-1.993.448-2.961.31-1.016.614-2.014.9-3,.462-1.015.914-2.011,1.341-3,.6-1,1.184-1.974,1.734-2.943.717-.966,1.41-1.917,2.06-2.862q.571-.655,1.119-1.3.781-.6,1.555-1.2C439.186,556.721,446.995,550.717,445.719,542.51Zm-34.455-9.463c-.114-.062-.227-.125-.337-.189,0-.029-.01-.059-.014-.089.119.048.238.1.359.143Zm.039-.567q-.231-.09-.456-.185c0-.032-.007-.065-.011-.1q.236.071.478.138C411.31,532.385,411.306,532.433,411.3,532.481Zm11.876,60.487c.047.138.092.277.137.416q-.231-.233-.467-.466-.046-.248-.093-.494Q422.97,592.7,423.178,592.968Zm-.438-1.233.071.192-.206-.258c-.017-.085-.034-.17-.052-.254Zm-.273.811q-.29-.281-.588-.562-.025-.354-.052-.7.261.312.514.624Q422.405,592.223,422.467,592.546Zm-.408-1.95q.063.277.123.556-.2-.242-.4-.483-.025-.3-.051-.6Q421.9,590.33,422.059,590.6Zm-.312-1.31q.036.144.071.289l-.158-.246c-.009-.1-.019-.2-.028-.306C421.67,589.111,421.709,589.2,421.747,589.286Zm-2.787-56.425.789.077c-.134.163-.269.323-.4.482l-.735-.106Q418.786,533.09,418.96,532.861Zm3.149,37.553q0-.16,0-.319.676-.584,1.364-1.155c-.008.047-.017.094-.025.142Q422.779,569.741,422.109,570.414Zm1.224-.7q-.071.368-.15.736-.556.627-1.11,1.266.017-.385.027-.77Q422.714,570.324,423.333,569.714Zm-1.325-2.356a30.362,30.362,0,0,0-2.652-10.149c-1.993-4.465-3.617-7.686-4.8-10.037a34.007,34.007,0,0,1-2.756-6.3q.59-.447,1.175-.909c.432.659.936,1.331,1.5,2.085a54.694,54.694,0,0,1,7.652,13.533,22.522,22.522,0,0,1,1.716,10.317Q422.923,566.623,422.009,567.358ZM417.242,580.2q-.282-.457-.569-.914.5-.764,1.022-1.5.21.47.414.941Q417.665,579.453,417.242,580.2Zm1.032-1.095q.2.468.394.939-.345.685-.676,1.388-.271-.452-.548-.9Q417.849,579.809,418.274,579.107Zm-1.8-.141q-.29-.459-.584-.917.589-.8,1.213-1.574.218.469.43.938Q416.987,578.179,416.471,578.967Zm-.2.315q-.5.778-.966,1.581l-.742-.9q.536-.82,1.111-1.614Q415.972,578.812,416.268,579.281Zm.2.322q.294.468.583.937-.409.74-.793,1.5-.362-.449-.729-.9Q415.985,580.361,416.471,579.6Zm.785,1.267q.285.466.565.934-.32.7-.622,1.411-.352-.444-.708-.888Q416.861,581.588,417.256,580.87Zm.768,1.275q.273.462.541.925-.233.647-.455,1.309-.338-.436-.681-.873Q417.717,582.817,418.024,582.145Zm.171-.371q.312-.67.639-1.323.188.462.369.927-.249.633-.488,1.281Q418.458,582.216,418.2,581.774Zm1.178.045q.172.448.338.9-.157.569-.309,1.15-.237-.426-.481-.851Q419.143,582.411,419.373,581.818Zm.173-.441q.237-.6.48-1.182.086.415.167.831-.169.579-.335,1.169Q419.7,581.785,419.547,581.377Zm-.171-.436q-.172-.437-.35-.871.338-.664.687-1.313.1.442.2.885Q419.64,580.285,419.376,580.941Zm-.516-1.273q-.187-.45-.379-.9.44-.714.9-1.411.115.454.222.91Q419.224,578.96,418.86,579.668Zm-.544-1.281q-.2-.456-.4-.911.54-.752,1.1-1.484.126.459.245.918Q418.781,577.639,418.316,578.387Zm.559-4.013q.654-.739,1.327-1.458.058.441.107.882-.594.722-1.174,1.463Q419.009,574.818,418.876,574.374Zm-.123-.406q-.094-.3-.191-.61.736-.727,1.5-1.434.04.263.077.527Q419.437,573.2,418.752,573.968Zm-.121.684q.137.458.266.917-.586.759-1.15,1.539-.208-.457-.42-.914Q417.966,575.411,418.632,574.652Zm-1.472,1.182q-.162-.345-.327-.689.72-.781,1.478-1.537.1.318.2.636Q417.821,575.026,417.16,575.833Zm-.228.28q-.641.8-1.249,1.617-.235-.365-.472-.73.669-.811,1.384-1.6Q416.765,575.759,416.932,576.114Zm-1.465,1.91q-.589.812-1.139,1.651l-.612-.743q.609-.842,1.269-1.655Q415.227,577.651,415.467,578.024Zm-1.341,1.964q-.523.817-1,1.662l-.738-.729q.531-.859,1.118-1.689Zm.232.282q.38.461.756.922-.442.779-.849,1.585l-.89-.878Q413.844,581.07,414.357,580.27Zm.986,1.2q.374.459.744.918-.363.739-.7,1.5-.435-.433-.875-.868Q414.912,582.237,415.344,581.474Zm.973,1.2q.366.456.727.912-.285.695-.549,1.408-.425-.428-.855-.857Q415.964,583.4,416.317,582.677Zm.957,1.2q.355.451.7.9-.21.646-.405,1.308-.411-.421-.828-.842Q417,584.555,417.274,583.88Zm.936,1.2q.339.443.671.887-.138.592-.268,1.2-.391-.41-.79-.821Q418.009,585.709,418.21,585.085Zm.132-.4q.209-.632.43-1.249.258.452.509.906-.151.589-.3,1.19Q418.667,585.1,418.342,584.68Zm1.156.053q.237.434.466.87-.075.521-.149,1.051-.292-.4-.591-.805Q419.358,585.285,419.5,584.733Zm.12-.473q.136-.524.276-1.037.151.421.3.844-.074.486-.147.98Q419.835,584.653,419.619,584.26Zm.422-1.57q.139-.5.28-.99.066.355.128.711-.077.489-.154.986Q420.17,583.042,420.041,582.69Zm.34-2.3q-.07-.348-.144-.7.2-.483.412-.959.011.349.019.7Q420.523,579.909,420.381,580.39Zm-.262-1.24q-.089-.4-.183-.8.321-.588.649-1.165.021.4.037.808Q420.369,578.565,420.118,579.15Zm-.3-1.286q-.1-.427-.213-.854.436-.656.882-1.3.033.427.059.856Q420.182,577.21,419.821,577.864Zm-.328-1.3q-.116-.439-.238-.878.547-.7,1.109-1.391.045.438.083.877Q419.964,575.859,419.493,576.562Zm.914-4.4q-.036-.245-.074-.491.728-.667,1.476-1.317,0,.183-.005.366Q421.1,571.437,420.407,572.167Zm-3.231-37.64q-.245.281-.495.554l-.51-.149q.213-.261.425-.528Zm-.294-.493q.188-.245.374-.5l.67.1q-.217.264-.436.522Zm-2.119,1.988q-.262.292-.526.574-.14-.088-.277-.177.224-.273.448-.555Zm-.1-.487q.2-.252.389-.511l.458.143q-.23.271-.463.535Zm-.953,1.185.255.167c-.2.208-.4.412-.595.614q-.087-.088-.172-.178C413.367,537.126,413.538,536.924,413.709,536.72Zm-.757.337q-.08-.089-.156-.179.19-.259.381-.527.117.085.237.168Q413.182,536.793,412.951,537.057Zm.708-.837c-.089-.06-.177-.121-.263-.182q.168-.241.337-.489.169.082.34.163Q413.867,535.97,413.66,536.221Zm-.543-.386q-.126-.094-.249-.19.115-.206.231-.419c.107.057.215.113.324.168Q413.269,535.617,413.116,535.834Zm-.22.31q-.166.231-.33.456c-.047-.06-.093-.12-.139-.18q.126-.218.254-.444Q412.787,536.062,412.9,536.145Zm-.318,1.027.135.157q-.25.284-.5.559c-.021-.05-.042-.1-.062-.151Q412.364,537.459,412.578,537.172Zm.379.425.155.163q-.33.329-.66.648c-.026-.053-.052-.106-.078-.159Q412.665,537.929,412.957,537.6Zm.414.424.173.167q-.409.368-.821.726-.047-.082-.091-.164Q413,538.393,413.371,538.021Zm.436.414.211.192q-.49.409-.986.8-.062-.1-.122-.2C413.209,538.972,413.509,538.707,413.807,538.435Zm.012-.5c-.064-.06-.127-.12-.189-.18q.325-.331.647-.674l.275.168Q414.188,537.6,413.819,537.939Zm.732-1.147q.282-.3.562-.619l.381.16q-.321.324-.645.638Zm.844-.942q.244-.28.486-.569l.483.143q-.28.3-.564.593Zm1.1-1.9q-.293-.064-.582-.13c.1-.147.2-.3.3-.448l.644.1C416.743,533.638,416.621,533.8,416.5,533.952Zm-.291.367q-.2.254-.409.5l-.487-.15q.172-.236.343-.477Zm-.657-.581q-.288-.067-.572-.137c.079-.131.158-.265.236-.4q.313.056.63.11Q415.7,533.528,415.552,533.738Zm-.261.37q-.164.228-.329.451-.24-.078-.476-.157.133-.21.265-.425Q415.019,534.044,415.291,534.108Zm-.593.8q-.183.241-.367.476-.188-.086-.371-.173.148-.222.3-.451Q414.475,534.837,414.7,534.91Zm-.542-.622q-.237-.082-.469-.168.095-.183.19-.37.263.071.53.14Q414.28,534.091,414.155,534.288Zm-.232.358q-.138.211-.276.416-.183-.09-.361-.183.1-.192.207-.388C413.635,534.544,413.778,534.6,413.923,534.647Zm-.547-.643q-.224-.086-.443-.175l.12-.313q.248.074.5.145C413.494,533.776,413.435,533.891,413.376,534Zm-.194.369q-.094.178-.188.351c-.113-.062-.225-.125-.335-.189l.125-.32Q412.981,534.295,413.182,534.372Zm-.375.694q-.1.185-.2.365-.113-.094-.224-.191l.135-.341Q412.659,534.984,412.806,535.067Zm-.388.7-.206.36q-.058-.085-.114-.171l.051-.128.087-.218C412.3,535.658,412.357,535.71,412.418,535.762Zm-.037-1.392q-.156-.1-.308-.194c.018-.081.035-.161.054-.243q.18.081.363.159Zm-.143.364-.109.277q-.1-.093-.193-.188l.051-.248C412.07,534.628,412.154,534.681,412.238,534.734Zm-.253.641-.094.237q-.041-.07-.08-.142c.013-.074.027-.148.042-.223C411.9,535.29,411.94,535.332,411.985,535.374Zm-.038.961c.025.038.051.076.077.113l-.189.322c-.008-.031-.016-.062-.023-.093Zm.292.411q.056.074.112.146-.172.231-.343.455c-.015-.044-.03-.089-.044-.134Q412.1,536.984,412.238,536.746Zm-.1,1.76c.022.046.044.092.067.138q-.339.323-.678.637c0-.037-.006-.075-.009-.112Q411.826,538.844,412.138,538.507Zm.245.481.081.148q-.434.372-.871.732c-.006-.042-.012-.084-.017-.126Q411.978,539.372,412.383,538.988Zm.269.471q.055.092.113.184-.53.418-1.064.824c-.013-.059-.024-.117-.035-.176C411.994,540.019,412.323,539.742,412.652,539.459Zm11.184,29.182.408-.335-.421.411Zm.326-2.989a23.036,23.036,0,0,0-1.778-10.281,55.1,55.1,0,0,0-7.706-13.629c-.541-.722-1.023-1.364-1.436-1.988q.535-.428,1.064-.872c.329.288.671.578,1.026.877,2.976,2.514,6.679,5.642,9.816,13.974a18.381,18.381,0,0,1,.817,10.521Q425.065,564.946,424.162,565.651Zm-10.08-27.47q.394-.364.784-.74l.318.186q-.435.384-.877.756Zm1.078-1.027q.34-.335.677-.681l.424.171q-.38.357-.766.7Zm.985-1q.294-.309.585-.626l.527.151q-.331.331-.666.653Zm.9-.971q.256-.286.508-.579l.623.128q-.288.308-.581.608Zm.82-.945c.15-.179.3-.359.447-.542l.711.1c-.169.193-.34.382-.512.57Zm-.034-1.493.75.076q-.17.22-.342.436l-.7-.1C417.634,533.02,417.73,532.884,417.826,532.747Zm-1.119-.119.723.078q-.14.2-.282.389l-.674-.107C416.552,532.868,416.63,532.749,416.707,532.628Zm-1.09-.125.711.083c-.074.115-.148.229-.222.342q-.335-.056-.665-.114C415.5,532.71,415.558,532.608,415.617,532.5Zm-1.065-.133q.35.046.705.09c-.056.1-.111.2-.166.292q-.333-.061-.661-.124Zm.311.768q-.114.191-.227.378-.286-.072-.567-.148l.172-.348Q414.55,533.08,414.863,533.138Zm-1.327-.908q.336.049.677.095l-.115.238q-.321-.064-.636-.131Zm.371.724c-.054.11-.108.219-.162.327q-.274-.076-.543-.156l.111-.3Q413.608,532.893,413.908,532.954Zm-1.341-.872q.322.052.65.1l-.067.181q-.312-.069-.617-.142Zm-.134.546q.281.068.568.132l-.1.272q-.264-.082-.523-.167C412.394,532.787,412.413,532.707,412.433,532.628Zm.316.8-.109.284q-.213-.09-.419-.185l.058-.25Q412.511,533.349,412.749,533.423Zm-1.105-1.5q.306.055.618.108l-.029.117q-.3-.075-.6-.154C411.639,531.971,411.641,531.947,411.644,531.923Zm-.047.491q.266.072.537.14l-.052.212q-.253-.087-.5-.18C411.587,532.531,411.592,532.472,411.6,532.415Zm-.044.6q.214.079.432.155l-.05.216q-.2-.095-.392-.194C411.546,533.137,411.55,533.077,411.553,533.019Zm-.027.628q.156.078.315.153l-.043.192q-.14-.1-.275-.2C411.524,533.746,411.525,533.7,411.526,533.646Zm.185.743-.034.161q-.077-.085-.153-.173c0-.04,0-.081,0-.122Q411.616,534.323,411.711,534.389Zm-.21,3.6.252-.419.027.078q-.14.182-.279.359C411.5,538,411.5,537.992,411.5,537.986Zm.425.044.049.117q-.241.262-.481.517c0-.026,0-.053,0-.08Q411.709,538.312,411.927,538.03Zm-1.31,2.069q.3-.306.605-.621c0,.025.005.05.008.075q-.309.281-.615.555Zm-.154.644q.411-.362.825-.737c.005.033.01.067.016.1q-.425.347-.851.685Zm-.111.611q.513-.407,1.03-.83c.011.052.023.1.034.157q-.541.407-1.084.8C410.339,541.44,410.346,541.4,410.352,541.354Zm-.076.649q.622-.45,1.242-.915a36.178,36.178,0,0,0,2.793,6.333c1.184,2.347,2.806,5.562,4.794,10.017a29.8,29.8,0,0,1,2.617,10.152q-.939.761-1.863,1.542a45.047,45.047,0,0,0-3.529-10.084C411.562,549.144,409.991,545.416,410.276,542Zm-1.254.386q.492-.377.99-.768c0,.034-.008.068-.011.1q-.5.362-1,.714Zm-.292.714q.615-.431,1.232-.873c-.176,3.414,1.441,7.333,6.122,17.06a44.456,44.456,0,0,1,3.508,10.069q-.932.794-1.839,1.611a83.164,83.164,0,0,0-4.45-10.08C408.077,550.774,407.35,546.8,408.73,543.1Zm-1.537,1.065q.548-.376,1.1-.76c-1.165,3.662-.315,7.894,4.769,17.735A82.434,82.434,0,0,1,417.5,571.2q-.907.826-1.778,1.679c-1.662-3.3-3.5-6.632-5.444-10.149C404.585,552.427,404.731,548.151,407.193,544.168Zm-1.534,1.049.19-.129.672-.459c-2.146,3.923-1.989,8.389,3.521,18.366,1.939,3.51,3.774,6.834,5.432,10.128q-.857.85-1.669,1.73l-.775-1.175c-1.93-2.926-3.925-5.951-5.781-9.105-3.343-5.68-4.754-9.886-4.44-13.235A10.891,10.891,0,0,1,405.659,545.216Zm-.973.666a10.545,10.545,0,0,0-2.172,5.4c-.326,3.477,1.106,7.787,4.507,13.565,1.862,3.164,3.86,6.193,5.793,9.123l.754,1.144q-.794.874-1.534,1.78a102.7,102.7,0,0,1-7.811-10.479c-3.312-5.3-4.684-9.336-4.318-12.712.321-2.963,1.95-5.216,4.277-7.471Zm4.368,35.241c-4.23-3.561-8.22-7.225-10.886-11.028-3.289-4.693-4.694-8.592-4.3-11.918.42-3.5,2.808-6.242,6.109-8.881a11.549,11.549,0,0,0-3.363,6.6c-.4,3.477,1.022,7.615,4.359,12.651a73.493,73.493,0,0,0,9.248,10.748Q409.608,580.192,409.054,581.123Zm1.385-2.135a73.4,73.4,0,0,1-9.244-10.735c-3.269-4.933-4.67-8.953-4.282-12.289.4-3.447,2.686-6.094,5.768-8.685a11.343,11.343,0,0,0-3.072,6.355c-.381,3.512,1.014,7.662,4.39,13.061a102.689,102.689,0,0,0,7.805,10.478Q411.092,578.064,410.44,578.988Zm1.647,4.649-.845-.695q.443-.864.946-1.7l.75.74Q412.489,582.8,412.086,583.637Zm1.286,1.054-.171-.14-.847-.694q.395-.826.835-1.624l.9.89Q413.714,583.895,413.372,584.691Zm1.27,1.042-1-.824q.334-.781.7-1.538l.891.884Q414.924,584.983,414.643,585.733Zm1.247,1.029-.983-.811q.274-.734.577-1.447.439.438.873.875Q416.113,586.061,415.89,586.761Zm1.218,1.015q-.474-.4-.955-.8.216-.684.453-1.35.428.433.849.865Q417.274,587.128,417.108,587.777Zm1.182,1q-.455-.389-.918-.779.16-.631.334-1.247.413.425.817.85C418.442,587.99,418.364,588.381,418.29,588.778Zm1.14.986q-.431-.378-.871-.756.106-.574.221-1.135.391.414.773.828Q419.489,589.227,419.43,589.763Zm.18-1.534q-.366-.4-.741-.791.122-.578.253-1.144.318.429.627.859Q419.677,587.686,419.61,588.229Zm.907,2.5q-.4-.362-.812-.723.055-.512.115-1.013.364.4.719.8Q420.528,590.255,420.517,590.729Zm.054-2.2c-.006.242-.012.486-.018.731q-.334-.372-.675-.745.062-.508.128-1.008.29.408.571.816C420.574,588.4,420.573,588.464,420.571,588.532Zm.02-.79q-.256-.367-.519-.734.065-.477.131-.948.208.4.409.807Q420.6,587.3,420.591,587.743Zm.038-1.576q-.17-.335-.345-.668.059-.407.12-.808.123.367.241.737Q420.638,585.795,420.629,586.167Zm.034-1.7c-.052-.155-.1-.31-.156-.463q.05-.326.1-.649c.022.14.045.279.067.42Q420.669,584.122,420.663,584.47Zm-.07-2.978q-.041-.222-.083-.443.086-.294.173-.586,0,.216,0,.433Zm.962,10.189q-.368-.344-.746-.687.01-.441.021-.876.337.384.664.768Q421.526,591.281,421.555,591.681Zm-.112-1.4q-.3-.344-.6-.687.01-.424.021-.84.26.384.511.77Q421.41,589.9,421.443,590.277Zm-.137-1.485q-.211-.316-.427-.632.009-.36.018-.715.176.362.345.726Q421.275,588.48,421.306,588.792Zm-.2-1.873c.01.087.021.175.031.262q-.108-.224-.219-.446.005-.207.01-.413Q421.015,586.619,421.1,586.919Zm.045-9.07v0l-.206.675q-.007-.214-.015-.427.136-.309.273-.615Q421.174,577.666,421.148,577.849Zm.2-1.487q-.227.5-.455,1.013-.016-.337-.036-.673.284-.493.57-.979Q421.39,576.041,421.349,576.362Zm.172-1.457q-.352.592-.7,1.194-.027-.388-.058-.775.415-.591.836-1.17Q421.562,574.528,421.521,574.9Zm.136-1.425q-.474.648-.942,1.309-.038-.412-.082-.823.538-.651,1.084-1.288Q421.691,573.077,421.658,573.479Zm-1.08-.005q-.05-.423-.107-.845.652-.692,1.317-1.367-.014.411-.035.824Q421.162,572.772,420.578,573.474Zm1.491,1.3-.109.239-.2.431q.021-.181.041-.362l.339-.568Zm.417-1.481q-.3.495-.6,1,.03-.307.056-.613.345-.472.691-.937Q422.562,573.018,422.486,573.3Zm.374-1.442q-.432.578-.864,1.164.026-.361.047-.72.488-.566.979-1.122Q422.943,571.515,422.86,571.854Zm.574-.125-.382.632q.034-.135.068-.271l.373-.5Zm.613-1.456-.185.245-.538.715q.062-.269.121-.537.394-.445.788-.885Q424.141,570.043,424.047,570.274Zm.553-1.412q-.5.56-1.007,1.128.065-.326.124-.652.552-.541,1.1-1.075Q424.712,568.562,424.6,568.862Zm1.366-1.527-.8.892q.08-.227.156-.454l.711-.687.125-.121Q426.065,567.15,425.966,567.335Zm1.239-4.037-.868.668a18.842,18.842,0,0,0-.928-10.435c-3.176-8.436-6.919-11.6-9.927-14.139-.306-.259-.6-.509-.887-.756q.469-.4.932-.811.386.22.783.443c3.978,2.241,8.928,5.03,11.857,13.61a15.962,15.962,0,0,1-.111,10.764Zm2.916-2.254q-.8.622-1.613,1.251a16.337,16.337,0,0,0-.072-10.6c-2.98-8.729-7.99-11.552-12.016-13.82l-.581-.328q.406-.368.8-.748l.679.267c5.274,2.07,11.252,4.415,13.866,12.961A14.574,14.574,0,0,1,430.121,561.044Zm.565-.443a14.825,14.825,0,0,0,.777-10.746c-2.671-8.732-8.722-11.107-14.06-13.2l-.433-.17q.349-.34.693-.688l.684.192c6.377,1.784,13.6,3.806,15.864,12.184,1.109,4.112.1,7.718-2.023,11.233Q431.451,560,430.686,560.6Zm2.241-1.8a13.913,13.913,0,0,0,1.562-10.782c-2.32-8.6-9.633-10.643-16.086-12.448l-.41-.115q.3-.314.6-.636l.781.157c7.483,1.5,15.964,3.2,17.859,11.34.964,4.139-.345,7.751-2.855,11.263Q433.671,558.188,432.927,558.8Zm2.475-2.126c2.044-3.245,3.012-6.631,2.113-10.493-1.954-8.391-10.532-10.11-18.1-11.627l-.492-.1q.263-.293.52-.593l.955.136c9.009,1.276,18.325,2.595,19.858,10.461.745,3.828-.541,7.2-2.99,10.445C436.678,555.5,436.055,556.085,435.4,556.674Zm3.383-3.407a12.279,12.279,0,0,0,1.755-8.921c-1.587-8.148-11.006-9.481-20.115-10.771l-.661-.094q.207-.248.411-.5l.592.057c10.17.977,20.685,1.987,21.863,9.566C443.24,546.522,441.643,549.958,438.786,553.266Z" transform="translate(-393.509 -511.022)" fill="url(#linear-gradient)"/>
        <path id="Path_12" data-name="Path 12" d="M568.748,860.48V848.344H564.1v-2.123h11.916v2.123h-4.666V860.48Z" transform="translate(-543.016 -806.235)" fill="#fff"/>
        <path id="Path_13" data-name="Path 13" d="M693.029,860.48l-1.422-3.344h-6.969L683.2,860.48h-2.6l6.449-14.259h2.1l6.469,14.259Zm-7.53-5.347h5.247l-2.624-6.108Z" transform="translate(-645.108 -806.235)" fill="#fff"/>
        <path id="Path_14" data-name="Path 14" d="M846.986,860.48V846.221h2.584v12.136h6.668v2.123Z" transform="translate(-790.934 -806.235)" fill="#fff"/>
        <path id="Path_15" data-name="Path 15" d="M970.123,860.48V846.221h9.532v2.043h-7.009v3.945h6.589v2.043h-6.589v4.186h7.009v2.042Z" transform="translate(-898.851 -806.235)" fill="#fff"/>
        <path id="Path_16" data-name="Path 16" d="M1108.517,846.221h2.423V860.48h-1.923l-7.69-9.993v9.993h-2.4V846.221h1.922l7.67,9.973Z" transform="translate(-1011.731 -806.235)" fill="#fff"/>
        <path id="Path_17" data-name="Path 17" d="M1247.764,860.48V848.344h-4.646v-2.123h11.916v2.123h-4.666V860.48Z" transform="translate(-1138.103 -806.235)" fill="#fff"/>
        <path id="Path_18" data-name="Path 18" d="M1386.342,860.48V846.221h2.584v12.136h6.669v2.123Z" transform="translate(-1263.623 -806.235)" fill="#fff"/>
        <path id="Path_19" data-name="Path 19" d="M1502.629,858.492a5.965,5.965,0,0,1-2.363-2.543,9.55,9.55,0,0,1-.01-7.77,5.847,5.847,0,0,1,2.353-2.533,7.857,7.857,0,0,1,7.23,0,5.788,5.788,0,0,1,2.343,2.533,9.653,9.653,0,0,1-.01,7.77,5.92,5.92,0,0,1-2.344,2.543,7.714,7.714,0,0,1-7.2,0Zm6.679-2.533a6.075,6.075,0,0,0,1.1-3.905,6,6,0,0,0-1.1-3.875,4.205,4.205,0,0,0-6.168-.01,5.991,5.991,0,0,0-1.1,3.885,6.073,6.073,0,0,0,1.1,3.905,4.173,4.173,0,0,0,6.168,0Z" transform="translate(-1362.737 -804.958)" fill="#fff"/>
        <path id="Path_20" data-name="Path 20" d="M1671.542,851.493v6.849a9.831,9.831,0,0,1-2.364.761,14.165,14.165,0,0,1-2.823.28,7.894,7.894,0,0,1-3.825-.881,5.956,5.956,0,0,1-2.483-2.523,8.351,8.351,0,0,1-.861-3.925,8.261,8.261,0,0,1,.861-3.885,6.009,6.009,0,0,1,2.453-2.523,7.592,7.592,0,0,1,3.735-.881,8.783,8.783,0,0,1,2.814.441,6.1,6.1,0,0,1,2.193,1.242l-.881,1.882a7.06,7.06,0,0,0-1.963-1.121,6.253,6.253,0,0,0-2.1-.341,4.146,4.146,0,0,0-3.334,1.322,5.79,5.79,0,0,0-1.132,3.865,5.865,5.865,0,0,0,1.162,3.955,4.351,4.351,0,0,0,3.464,1.332,10.223,10.223,0,0,0,2.764-.381v-3.6h-3.085v-1.862Z" transform="translate(-1502.742 -804.958)" fill="#fff"/>
        <path id="Path_21" data-name="Path 21" d="M1815.046,860.48V846.221h2.583V860.48Z" transform="translate(-1639.337 -806.235)" fill="#fff"/>
        <path id="Path_22" data-name="Path 22" d="M1900.488,860.244a15.508,15.508,0,0,0,1.5,1.382l-1.743,1.4a10.866,10.866,0,0,1-1.812-1.632,12.908,12.908,0,0,1-1.492-2.033c-.12.013-.313.02-.581.02a7.017,7.017,0,0,1-3.594-.891,5.964,5.964,0,0,1-2.363-2.543,9.547,9.547,0,0,1-.01-7.77,5.85,5.85,0,0,1,2.353-2.533,7.856,7.856,0,0,1,7.23,0,5.791,5.791,0,0,1,2.343,2.533,8.7,8.7,0,0,1,.811,3.875,8.468,8.468,0,0,1-.971,4.185,5.812,5.812,0,0,1-2.753,2.544A7.476,7.476,0,0,0,1900.488,860.244Zm-7.21-4.286a4.172,4.172,0,0,0,6.168,0,6.073,6.073,0,0,0,1.1-3.905,6,6,0,0,0-1.1-3.875,4.2,4.2,0,0,0-6.168-.01,5.991,5.991,0,0,0-1.1,3.885A6.073,6.073,0,0,0,1893.278,855.958Z" transform="translate(-1704.652 -805.022)" fill="#fff"/>
        <path id="Path_23" data-name="Path 23" d="M2049.974,858.943a7.066,7.066,0,0,1-2.433-1.262l.881-1.882a7.512,7.512,0,0,0,2.173,1.151,7.893,7.893,0,0,0,2.473.371,4.24,4.24,0,0,0,2.293-.521,1.643,1.643,0,0,0,.811-1.462,1.351,1.351,0,0,0-.751-1.232,9.409,9.409,0,0,0-2.473-.811,10.281,10.281,0,0,1-3.906-1.5,3.156,3.156,0,0,1-1.222-2.684,3.844,3.844,0,0,1,.681-2.243,4.542,4.542,0,0,1,1.933-1.542,7.018,7.018,0,0,1,2.894-.561,8.964,8.964,0,0,1,2.854.451,5.977,5.977,0,0,1,2.213,1.251l-.862,1.883a6.575,6.575,0,0,0-4.206-1.522,3.7,3.7,0,0,0-2.182.571,1.806,1.806,0,0,0-.8,1.552,1.418,1.418,0,0,0,.711,1.282,8.42,8.42,0,0,0,2.434.821,17.4,17.4,0,0,1,2.9.911,4.336,4.336,0,0,1,1.723,1.262,3.052,3.052,0,0,1,.6,1.933,3.738,3.738,0,0,1-.681,2.233,4.348,4.348,0,0,1-1.962,1.472,8.007,8.007,0,0,1-3.024.521A10.413,10.413,0,0,1,2049.974,858.943Z" transform="translate(-1843.095 -804.958)" fill="#fff"/>
        <g id="Group_10" data-name="Group 10" transform="translate(35.915 60.642)">
          <path id="Path_24" data-name="Path 24" d="M684.077,1019h1.365v3.6h1.223V1019h1.365v-.979h-3.952Z" transform="translate(-684.077 -1017.961)" fill="#fff"/>
          <path id="Path_25" data-name="Path 25" d="M733.466,1019.8h-1.854v-1.783h-1.184v4.583h1.184v-1.854h1.854v1.854h1.184v-4.583h-1.184Z" transform="translate(-724.698 -1017.961)" fill="#fff"/>
          <path id="Path_26" data-name="Path 26" d="M781.669,1022.6h3.27v-.927h-2.092v-.94H784.8v-.927h-1.957v-.863h2.092v-.927h-3.27Z" transform="translate(-769.606 -1017.961)" fill="#fff"/>
          <path id="Path_27" data-name="Path 27" d="M850.82,1019.762a3.881,3.881,0,0,0-.981-.325,4.206,4.206,0,0,1-.579-.158.7.7,0,0,1-.264-.151.273.273,0,0,1-.071-.193.384.384,0,0,1,.2-.338.981.981,0,0,1,.528-.125,2.089,2.089,0,0,1,.669.113,2.471,2.471,0,0,1,.637.325l.373-.856a1.989,1.989,0,0,0-.73-.364,3.363,3.363,0,0,0-.962-.139,2.427,2.427,0,0,0-.985.19,1.568,1.568,0,0,0-.669.528,1.279,1.279,0,0,0-.238.757,1.255,1.255,0,0,0,.145.624,1.188,1.188,0,0,0,.505.447,3.827,3.827,0,0,0,1.011.319,2.581,2.581,0,0,1,.7.222.331.331,0,0,1,.186.287.328.328,0,0,1-.206.3,1.323,1.323,0,0,1-.592.106,2.625,2.625,0,0,1-.756-.113,2.821,2.821,0,0,1-.711-.325l-.38.856a2.456,2.456,0,0,0,.818.367,3.9,3.9,0,0,0,1.017.135,2.44,2.44,0,0,0,1.467-.383,1.234,1.234,0,0,0,.522-1.052,1.193,1.193,0,0,0-.148-.608A1.23,1.23,0,0,0,850.82,1019.762Z" transform="translate(-827.432 -1017.55)" fill="#fff"/>
          <path id="Path_28" data-name="Path 28" d="M895.853,1018.5a1.952,1.952,0,0,1,1.159.406l.367-.856a1.842,1.842,0,0,0-.679-.367,2.834,2.834,0,0,0-.872-.135,2.54,2.54,0,0,0-1.245.293,2.015,2.015,0,0,0-.818.824,2.545,2.545,0,0,0-.286,1.227,2.574,2.574,0,0,0,.286,1.235,2.011,2.011,0,0,0,.818.828,2.541,2.541,0,0,0,1.245.293,2.845,2.845,0,0,0,.872-.135,1.84,1.84,0,0,0,.679-.367l-.367-.856a1.948,1.948,0,0,1-1.159.406,1.044,1.044,0,0,1-.849-.354,1.6,1.6,0,0,1-.3-1.049,1.575,1.575,0,0,1,.3-1.04A1.048,1.048,0,0,1,895.853,1018.5Z" transform="translate(-867.595 -1017.55)" fill="#fff"/>
          <rect id="Rectangle_266" data-name="Rectangle 266" width="1.21" height="4.583" transform="translate(31.702 0.058)" fill="#fff"/>
          <path id="Path_29" data-name="Path 29" d="M967.427,1022.6h3.27v-.927h-2.092v-.94h1.956v-.927h-1.956v-.863H970.7v-.927h-3.27Z" transform="translate(-932.404 -1017.961)" fill="#fff"/>
          <path id="Path_30" data-name="Path 30" d="M1012.258,1020.607l-2.079-2.588h-.882v4.583h1.126V1020l2.079,2.6h.895v-4.583h-1.139Z" transform="translate(-969.098 -1017.961)" fill="#fff"/>
          <path id="Path_31" data-name="Path 31" d="M1060.989,1018.5a1.955,1.955,0,0,1,1.159.406l.366-.856a1.848,1.848,0,0,0-.678-.367,2.838,2.838,0,0,0-.873-.135,2.538,2.538,0,0,0-1.245.293,2.02,2.02,0,0,0-.818.824,2.55,2.55,0,0,0-.286,1.227,2.58,2.58,0,0,0,.286,1.235,2.016,2.016,0,0,0,.818.828,2.539,2.539,0,0,0,1.245.293,2.849,2.849,0,0,0,.873-.135,1.846,1.846,0,0,0,.678-.367l-.366-.856a1.951,1.951,0,0,1-1.159.406,1.046,1.046,0,0,1-.85-.354,1.605,1.605,0,0,1-.3-1.049,1.58,1.58,0,0,1,.3-1.04A1.05,1.05,0,0,1,1060.989,1018.5Z" transform="translate(-1012.32 -1017.55)" fill="#fff"/>
          <path id="Path_32" data-name="Path 32" d="M1105.693,1022.6h3.27v-.927h-2.092v-.94h1.957v-.927h-1.957v-.863h2.092v-.927h-3.27Z" transform="translate(-1053.58 -1017.961)" fill="#fff"/>
          <path id="Path_33" data-name="Path 33" d="M1175.617,1017.837a2.74,2.74,0,0,0-2.44,0,1.984,1.984,0,0,0-.8.814,2.6,2.6,0,0,0-.283,1.243,2.65,2.65,0,0,0,.28,1.249,1.941,1.941,0,0,0,.8.821,2.744,2.744,0,0,0,2.443,0,1.93,1.93,0,0,0,.8-.821,2.679,2.679,0,0,0,.277-1.249,2.642,2.642,0,0,0-.277-1.243A1.942,1.942,0,0,0,1175.617,1017.837Zm-.412,3.125a1.072,1.072,0,0,1-1.613,0,1.693,1.693,0,0,1-.29-1.071,1.668,1.668,0,0,1,.29-1.062,1.079,1.079,0,0,1,1.613,0,1.659,1.659,0,0,1,.293,1.059A1.683,1.683,0,0,1,1175.205,1020.962Z" transform="translate(-1111.772 -1017.55)" fill="#fff"/>
          <path id="Path_34" data-name="Path 34" d="M1225.417,1022.6h1.191v-1.86h1.88v-.94h-1.88v-.837h2.009v-.946h-3.2Z" transform="translate(-1158.505 -1017.961)" fill="#fff"/>
          <path id="Path_35" data-name="Path 35" d="M1293.081,1020.421h.8v.85a2.9,2.9,0,0,1-.606.064,1.219,1.219,0,0,1-.962-.354,1.61,1.61,0,0,1-.312-1.088,1.572,1.572,0,0,1,.3-1.053,1.142,1.142,0,0,1,.911-.344,2.061,2.061,0,0,1,.628.093,2.522,2.522,0,0,1,.608.3l.38-.856a2.022,2.022,0,0,0-.718-.354,3.329,3.329,0,0,0-.937-.129,2.657,2.657,0,0,0-1.261.286,2.021,2.021,0,0,0-.837.817,2.5,2.5,0,0,0-.3,1.24,2.539,2.539,0,0,0,.3,1.258,1.984,1.984,0,0,0,.846.815,2.8,2.8,0,0,0,1.3.283,4.768,4.768,0,0,0,.93-.09,3.691,3.691,0,0,0,.82-.258v-2.3h-1.886Z" transform="translate(-1215.785 -1017.55)" fill="#fff"/>
          <path id="Path_36" data-name="Path 36" d="M1344.489,1020.858a.718.718,0,0,0-.348-.18,1.333,1.333,0,0,0,.7-.48,1.318,1.318,0,0,0,.248-.8,1.268,1.268,0,0,0-.418-1.02,1.88,1.88,0,0,0-1.249-.358h-2.131v4.583h1.191v-1.783h.438a.459.459,0,0,1,.483.258l.592,1.526h1.281l-.54-1.365A.975.975,0,0,0,1344.489,1020.858Zm-.7-1.059a1.014,1.014,0,0,1-.56.119h-.76v-.985h.76a1.036,1.036,0,0,1,.564.116.426.426,0,0,1,.171.38A.417.417,0,0,1,1343.787,1019.8Z" transform="translate(-1260.054 -1017.961)" fill="#fff"/>
          <path id="Path_37" data-name="Path 37" d="M1391.163,1017.837a2.741,2.741,0,0,0-2.44,0,1.983,1.983,0,0,0-.8.814,2.59,2.59,0,0,0-.283,1.243,2.654,2.654,0,0,0,.28,1.249,1.947,1.947,0,0,0,.8.821,2.745,2.745,0,0,0,2.443,0,1.929,1.929,0,0,0,.8-.821,2.677,2.677,0,0,0,.277-1.249,2.641,2.641,0,0,0-.277-1.243A1.941,1.941,0,0,0,1391.163,1017.837Zm-.412,3.125a1.071,1.071,0,0,1-1.612,0,1.69,1.69,0,0,1-.29-1.071,1.666,1.666,0,0,1,.29-1.062,1.079,1.079,0,0,1,1.612,0,1.656,1.656,0,0,1,.293,1.059A1.68,1.68,0,0,1,1390.751,1020.962Z" transform="translate(-1300.676 -1017.55)" fill="#fff"/>
          <path id="Path_38" data-name="Path 38" d="M1442.165,1020.961l-.985-2.942h-.824l-1.024,2.89-.94-2.89h-1.23l1.635,4.583h.959l.978-2.723.959,2.723h.959l1.641-4.583h-1.146Z" transform="translate(-1344.078 -1017.961)" fill="#fff"/>
          <rect id="Rectangle_267" data-name="Rectangle 267" width="1.21" height="4.583" transform="translate(101.994 0.058)" fill="#fff"/>
          <path id="Path_39" data-name="Path 39" d="M1539.072,1020.607l-2.079-2.588h-.882v4.583h1.127V1020l2.079,2.6h.895v-4.583h-1.139Z" transform="translate(-1430.795 -1017.961)" fill="#fff"/>
          <path id="Path_40" data-name="Path 40" d="M1587.736,1020.421h.8v.85a2.9,2.9,0,0,1-.605.064,1.218,1.218,0,0,1-.962-.354,1.61,1.61,0,0,1-.312-1.088,1.574,1.574,0,0,1,.3-1.053,1.143,1.143,0,0,1,.911-.344,2.059,2.059,0,0,1,.628.093,2.528,2.528,0,0,1,.608.3l.38-.856a2.021,2.021,0,0,0-.718-.354,3.327,3.327,0,0,0-.937-.129,2.657,2.657,0,0,0-1.261.286,2.02,2.02,0,0,0-.837.817,2.5,2.5,0,0,0-.3,1.24,2.539,2.539,0,0,0,.3,1.258,1.982,1.982,0,0,0,.846.815,2.8,2.8,0,0,0,1.3.283,4.765,4.765,0,0,0,.93-.09,3.691,3.691,0,0,0,.821-.258v-2.3h-1.886Z" transform="translate(-1474.02 -1017.55)" fill="#fff"/>
          <path id="Path_41" data-name="Path 41" d="M1658.753,1019h1.365v3.6h1.223V1019h1.365v-.979h-3.953Z" transform="translate(-1538.278 -1017.961)" fill="#fff"/>
          <path id="Path_42" data-name="Path 42" d="M1705.608,1017.837a2.74,2.74,0,0,0-2.44,0,1.981,1.981,0,0,0-.8.814,2.586,2.586,0,0,0-.283,1.243,2.656,2.656,0,0,0,.28,1.249,1.945,1.945,0,0,0,.8.821,2.745,2.745,0,0,0,2.443,0,1.93,1.93,0,0,0,.795-.821,2.68,2.68,0,0,0,.277-1.249,2.644,2.644,0,0,0-.277-1.243A1.943,1.943,0,0,0,1705.608,1017.837Zm-.412,3.125a1.071,1.071,0,0,1-1.612,0,1.69,1.69,0,0,1-.29-1.071,1.665,1.665,0,0,1,.29-1.062,1.078,1.078,0,0,1,1.612,0,1.656,1.656,0,0,1,.293,1.059A1.68,1.68,0,0,1,1705.2,1020.962Z" transform="translate(-1576.253 -1017.55)" fill="#fff"/>
          <path id="Path_43" data-name="Path 43" d="M1756.725,1020.421h.8v.85a2.9,2.9,0,0,1-.605.064,1.219,1.219,0,0,1-.962-.354,1.61,1.61,0,0,1-.312-1.088,1.572,1.572,0,0,1,.3-1.053,1.143,1.143,0,0,1,.911-.344,2.06,2.06,0,0,1,.628.093,2.533,2.533,0,0,1,.608.3l.38-.856a2.02,2.02,0,0,0-.717-.354,3.328,3.328,0,0,0-.937-.129,2.659,2.659,0,0,0-1.262.286,2.024,2.024,0,0,0-.837.817,2.507,2.507,0,0,0-.3,1.24,2.545,2.545,0,0,0,.3,1.258,1.99,1.99,0,0,0,.846.815,2.8,2.8,0,0,0,1.3.283,4.77,4.77,0,0,0,.931-.09,3.7,3.7,0,0,0,.821-.258v-2.3h-1.886Z" transform="translate(-1622.121 -1017.55)" fill="#fff"/>
          <path id="Path_44" data-name="Path 44" d="M1804.936,1022.6h3.27v-.927h-2.093v-.94h1.957v-.927h-1.957v-.863h2.093v-.927h-3.27Z" transform="translate(-1666.392 -1017.961)" fill="#fff"/>
          <path id="Path_45" data-name="Path 45" d="M1844.983,1019h1.365v3.6h1.223V1019h1.365v-.979h-3.952Z" transform="translate(-1701.49 -1017.961)" fill="#fff"/>
          <path id="Path_46" data-name="Path 46" d="M1894.369,1019.8h-1.854v-1.783h-1.185v4.583h1.185v-1.854h1.854v1.854h1.184v-4.583h-1.184Z" transform="translate(-1742.109 -1017.961)" fill="#fff"/>
          <path id="Path_47" data-name="Path 47" d="M1942.572,1022.6h3.27v-.927h-2.092v-.94h1.957v-.927h-1.957v-.863h2.092v-.927h-3.27Z" transform="translate(-1787.016 -1017.961)" fill="#fff"/>
          <path id="Path_48" data-name="Path 48" d="M1987.888,1021.238a.976.976,0,0,0-.245-.38.715.715,0,0,0-.348-.18,1.284,1.284,0,0,0,.946-1.281,1.269,1.269,0,0,0-.418-1.02,1.881,1.881,0,0,0-1.249-.358h-2.131v4.583h1.191v-1.783h.438a.46.46,0,0,1,.483.258l.593,1.526h1.281Zm-.946-1.439a1.016,1.016,0,0,1-.56.119h-.76v-.985h.76a1.033,1.033,0,0,1,.563.116.425.425,0,0,1,.171.38A.418.418,0,0,1,1986.942,1019.8Z" transform="translate(-1823.713 -1017.961)" fill="#fff"/>
        </g>
      </g>
    </g>
  </g>
</svg>
