<svg xmlns="http://www.w3.org/2000/svg" xmlns:xlink="http://www.w3.org/1999/xlink" width="57.956" height="56.521" viewBox="0 0 57.956 56.521">
  <defs>
    <linearGradient id="linear-gradient" x1="0.5" x2="0.5" y2="1" gradientUnits="objectBoundingBox">
      <stop offset="0" stop-color="#ff0164"/>
      <stop offset="1" stop-color="#8624db"/>
    </linearGradient>
  </defs>
  <g id="Group_174" data-name="Group 174" transform="translate(-1249.53 1569.315)">
    <path id="Path_6835" data-name="Path 6835" d="M1766.7-1035.5a1.43,1.43,0,0,1-1.083-1.926c.05-.189.064-.388.1-.582q.578-3.346,1.16-6.692a.508.508,0,0,0-.169-.515c-1.821-1.76-3.631-3.53-5.448-5.293a1.352,1.352,0,0,1-.426-1.445,1.308,1.308,0,0,1,1.166-.946c.643-.091,1.286-.188,1.929-.281,1.919-.278,3.839-.553,5.756-.845a.514.514,0,0,0,.295-.273c1.135-2.282,2.258-4.57,3.389-6.854a1.341,1.341,0,0,1,1.767-.73,1.441,1.441,0,0,1,.745.762c1.112,2.26,2.231,4.517,3.338,6.78a.547.547,0,0,0,.479.348c2.476.347,4.948.722,7.425,1.067a1.511,1.511,0,0,1,1.343,1.106v.532a2.506,2.506,0,0,1-.709.995q-2.632,2.551-5.255,5.112a.423.423,0,0,0-.147.433c.442,2.511.87,5.025,1.3,7.537a1.35,1.35,0,0,1-1.033,1.664.317.317,0,0,0-.072.047h-.414c-.24-.108-.487-.2-.719-.326q-3.279-1.72-6.551-3.452a.471.471,0,0,0-.511.006c-.655.359-1.318.7-1.982,1.048q-2.628,1.364-5.258,2.723Zm-1.627-15.123-.038.074c.1.084.194.163.285.251q1.949,1.9,3.9,3.793a1.423,1.423,0,0,1,.453,1.36c-.263,1.473-.51,2.949-.762,4.424-.077.449-.149.9-.232,1.4.109-.054.161-.078.212-.1,1.638-.861,3.281-1.713,4.91-2.59a1.577,1.577,0,0,1,1.622,0c1.143.618,2.3,1.214,3.447,1.818l1.665.872a1.761,1.761,0,0,0-.009-.183c-.316-1.843-.624-3.688-.955-5.529a1.561,1.561,0,0,1,.49-1.519c1.315-1.263,2.614-2.542,3.918-3.816.067-.066.129-.137.218-.234-.088-.016-.133-.026-.178-.033-1.851-.271-3.7-.552-5.554-.8a1.559,1.559,0,0,1-1.288-.942c-.795-1.638-1.608-3.267-2.415-4.9-.044-.09-.095-.176-.159-.295-.068.133-.114.219-.157.307-.809,1.642-1.622,3.282-2.425,4.927a1.438,1.438,0,0,1-1.108.876c-.555.086-1.111.162-1.666.242Z" transform="translate(-480.976 -477.294)" fill="url(#linear-gradient)"/>
    <path id="Path_6836" data-name="Path 6836" d="M1267.188-1537.931a16.546,16.546,0,0,1-8.717-19.358,16.561,16.561,0,0,1,15.921-12.026,16.563,16.563,0,0,1,15.874,12.088,16.564,16.564,0,0,1-8.734,19.3,25,25,0,0,1,6.5,3.052l-1.447,2.192c-7.416-4.41-15.054-5.037-22.689-.911-7.618,4.117-11.342,10.807-11.722,19.428h-2.64a24.507,24.507,0,0,1,4.9-14.762A24.778,24.778,0,0,1,1267.188-1537.931Zm-6.646-14.89a13.852,13.852,0,0,0,13.73,13.828,13.826,13.826,0,0,0,13.9-13.8,13.815,13.815,0,0,0-13.721-13.819A13.832,13.832,0,0,0,1260.543-1552.821Z" fill="url(#linear-gradient)"/>
  </g>
</svg>
