<svg xmlns="http://www.w3.org/2000/svg" xmlns:xlink="http://www.w3.org/1999/xlink" width="49" height="60" viewBox="0 0 49 60">
  <defs>
    <linearGradient id="linear-gradient" x1="0.5" x2="0.5" y2="1" gradientUnits="objectBoundingBox">
      <stop offset="0" stop-color="#ff0164"/>
      <stop offset="1" stop-color="#8624db"/>
    </linearGradient>
  </defs>
  <path id="Union_22" data-name="Union 22" d="M34.777,59.657a1.183,1.183,0,0,1,0-1.657,1.144,1.144,0,0,1,1.634,0,1.183,1.183,0,0,1,0,1.657,1.144,1.144,0,0,1-1.634,0Zm-11.088.006L22.4,58.375a14.815,14.815,0,0,1-4.262-9.39H1.156A1.164,1.164,0,0,1,0,47.813V39.533A11.266,11.266,0,0,1,6.721,29.191a35.169,35.169,0,0,1,4.6-16.309A34.56,34.56,0,0,1,23.925.155a1.142,1.142,0,0,1,1.15,0A34.558,34.558,0,0,1,37.681,12.883a35.169,35.169,0,0,1,4.6,16.309A11.266,11.266,0,0,1,49,39.533v8.279a1.164,1.164,0,0,1-1.156,1.172H36.75v6.048a1.156,1.156,0,1,1-2.311,0V48.985H30.863a14.814,14.814,0,0,1-4.262,9.39l-1.289,1.288a1.145,1.145,0,0,1-1.622,0Zm.333-2.958.478.478.478-.478a12.439,12.439,0,0,0,3.566-7.721H20.456A12.437,12.437,0,0,0,24.022,56.705ZM42.3,45.469a3.543,3.543,0,0,1-.2,1.172h4.59V39.533A8.941,8.941,0,0,0,42.3,31.817ZM9.014,30.3V45.469a1.165,1.165,0,0,0,1.156,1.172H38.83a1.165,1.165,0,0,0,1.156-1.172V30.3a32.754,32.754,0,0,0-4.73-16.944H13.744q-.709,1.172-1.319,2.4h4.183a1.172,1.172,0,0,1,0,2.344H11.375A32.721,32.721,0,0,0,9.014,30.3Zm-6.7,9.23v7.107H6.9a3.541,3.541,0,0,1-.2-1.172V31.817A8.941,8.941,0,0,0,2.311,39.533ZM15.3,11.016H33.7a32.061,32.061,0,0,0-9.2-8.485A32.061,32.061,0,0,0,15.3,11.016ZM12.25,56.9v-3.61a1.156,1.156,0,1,1,2.311,0V56.9a1.156,1.156,0,1,1-2.311,0Zm8.156-17.075a10.481,10.481,0,0,1-1.786-.983,10.729,10.729,0,0,1,0-17.686,10.474,10.474,0,0,1,1.786-.983,10.416,10.416,0,0,1,8.187,0,10.471,10.471,0,0,1,1.786.983,10.729,10.729,0,0,1,0,17.686,10.478,10.478,0,0,1-1.786.983,10.418,10.418,0,0,1-8.187,0Zm-4.114-9.849a8.2,8.2,0,1,0,8.2-8.3A8.264,8.264,0,0,0,16.292,29.977Z" transform="translate(0 0)" fill="url(#linear-gradient)"/>
</svg>
