<svg xmlns="http://www.w3.org/2000/svg" width="17.928" height="17.928"><defs><linearGradient id="a" x1=".5" x2=".5" y2="1" gradientUnits="objectBoundingBox"><stop offset="0" stop-color="#ff0164"/><stop offset="1" stop-color="#8624db"/></linearGradient></defs><g transform="translate(-.001)" fill="url(#a)"><path data-name="Path 2970" d="M11.071 9.128a.327.327 0 10.327.327.328.328 0 00-.327-.327zm0 0"/><path data-name="Path 2971" d="M3.578 12.948L.077 17.36a.35.35 0 00.274.568h17.227a.35.35 0 00.274-.568l-3.5-4.412a.35.35 0 00-.274-.133H11.01l2.619-4.107a5.6 5.6 0 10-9.327 0l2.618 4.107H3.852a.35.35 0 00-.274.133zm-1.307 2.774h2.117l-1.195 1.505H1.076zm5.1-2.206l.96 1.506H5.838l1.2-1.506zm3.2 0h.329l1.195 1.506H9.6zm2.084 2.206l1.195 1.506H4.087l1.2-1.506zm2.089 1.506l-1.2-1.506h2.117l1.195 1.506zm.366-2.206h-2.124l-1.2-1.506h2.117zm-10.224-6.7a4.9 4.9 0 118.158 0v.006L8.965 14.72 4.89 8.329v-.006zm1.253 5.193l-1.195 1.506H2.827l1.2-1.506zm0 0"/><path data-name="Path 2972" d="M8.965 8.514A3.275 3.275 0 105.69 5.24a3.275 3.275 0 003.275 3.274zm0-5.894a2.62 2.62 0 11-2.62 2.62 2.623 2.623 0 012.62-2.62zm0 0"/><path data-name="Path 2973" d="M10.388 10.421a.327.327 0 00-.45.111l-1.21 2.008a.327.327 0 00.561.338l1.21-2.008a.327.327 0 00-.111-.449zm0 0"/></g></svg>