<svg xmlns="http://www.w3.org/2000/svg" width="11.64" height="17.718"><defs><linearGradient id="a" x1=".5" x2=".5" y2="1" gradientUnits="objectBoundingBox"><stop offset="0" stop-color="#ff0164"/><stop offset="1" stop-color="#8624db"/></linearGradient></defs><path data-name="Union 25" d="M11113.251 5537.72a.416.416 0 010-.832h2.152v-2.16a5.827 5.827 0 01-5.4-5.8v-2.6a.416.416 0 01.832 0v2.6a4.988 4.988 0 109.976 0v-2.6a.416.416 0 01.832 0v2.6a5.827 5.827 0 01-5.4 5.8v2.16h2.152a.416.416 0 010 .832zm2.292-5.069a3.452 3.452 0 01-3.45-3.45v-5.753a3.451 3.451 0 013.45-3.447h.555a3.45 3.45 0 013.447 3.447v5.753a3.451 3.451 0 01-3.447 3.45zm0-.832h.555a2.622 2.622 0 002.613-2.479h-1.5a.416.416 0 110-.832h1.507v-1.158h-1.507a.416.416 0 010-.832h1.507v-1.158h-1.507a.416.416 0 010-.832h1.507v-1.08a2.623 2.623 0 00-1.481-2.358v1.178a.416.416 0 01-.832 0v-1.418c-.1-.011-1.061-.011-1.158 0v1.418a.416.416 0 01-.832 0v-1.178a2.62 2.62 0 00-1.484 2.358v1.08h1.507a.416.416 0 010 .832h-1.507v1.158h1.507a.416.416 0 010 .832h-1.507v1.158h1.507a.416.416 0 110 .832h-1.5a2.618 2.618 0 002.605 2.479z" transform="translate(-11109.999 -5520.001)" fill="url(#a)"/></svg>