<svg xmlns="http://www.w3.org/2000/svg" width="532.268" height="1030.273"><defs><linearGradient id="a" x1=".5" x2=".5" y2="1" gradientUnits="objectBoundingBox"><stop offset="0" stop-color="#070707"/><stop offset=".285" stop-color="#8624db"/><stop offset=".788" stop-color="#ff0164"/><stop offset="1" stop-color="#070707"/></linearGradient></defs><path data-name="Path 61" d="M-1427.792 916.637c-12.467-83.446-120.542-94.244-225.059-104.683-9.9-.989-19.74-1.973-29.442-3.011a347.391 347.391 0 0046.176-84.975 315.312 315.312 0 0018.927-140.346c-.964.816-1.95 1.606-2.927 2.405a308.881 308.881 0 01-18.647 135.749 343.275 343.275 0 01-47.745 86.709q-4.193-.458-8.346-.934a358.905 358.905 0 0043.314-83.734 350.7 350.7 0 0020.9-129.622c-1.013.743-2 1.524-3.023 2.253a344.265 344.265 0 01-20.553 125.252 356.323 356.323 0 01-44.438 85.412q-4.021-.475-7.993-.973a381.078 381.078 0 0039.679-82.465 399.284 399.284 0 0021.79-119.544c-1.03.649-2.082 1.262-3.121 1.9a392.818 392.818 0 01-21.369 115.608 375.467 375.467 0 01-40.884 84.007q-3.912-.505-7.772-1.041a419.94 419.94 0 0035.929-81.071 479.948 479.948 0 0022.681-110.948c-1.086.586-2.155 1.194-3.249 1.766a474.073 474.073 0 01-22.164 107.221 413.722 413.722 0 01-36.914 82.508q-3.888-.56-7.715-1.153a491.811 491.811 0 0031.933-79.549c11.03-35.772 18.6-70.043 22.833-103.143-1.089.494-2.209.929-3.3 1.41a608.855 608.855 0 01-22.289 99.861 484.089 484.089 0 01-32.7 80.859q-3.9-.632-7.715-1.307a644.088 644.088 0 0027.754-77.836c9.615-33.216 17.522-65.285 23.011-96.731q-1.674.629-3.357 1.239c-5.422 30.469-13.128 61.549-22.44 93.715a635.727 635.727 0 01-28.323 79q-3.817-.708-7.542-1.463c7.187-20.809 15.073-45.672 23.223-75.929 8.426-31.267 16.528-61.479 23.059-91.324-1.146.351-2.266.745-3.419 1.08-6.4 28.943-14.285 58.257-22.454 88.574-8.292 30.774-16.312 55.943-23.594 76.941q-3.786-.8-7.465-1.665c2.608-10.663 5.588-22.494 8.929-35.765 2.907-11.54 6.08-24.15 9.52-38.007 4.622-18.6 9.5-36.695 14.221-54.191 2.977-11.034 5.891-21.9 8.695-32.67-1.141.276-2.294.51-3.44.775q-3.916 14.952-8.071 30.225c-4.726 17.524-9.615 35.643-14.248 54.305a11122.692 11122.692 0 01-9.519 37.991c-3.422 13.59-6.472 25.7-9.139 36.606q-3.779-.929-7.43-1.932c2.5-18.979 6.927-42.141 13.506-71.28 6.588-29.173 14.929-56.74 23.029-83.419-1.166.221-2.342.415-3.512.624-7.9 26.014-15.959 52.875-22.389 81.36-6.6 29.207-11.016 52.606-13.52 71.9q-3.755-1.08-7.364-2.253c.041-18 2.635-40.182 8.33-68.387 5.715-28.294 14.312-54.934 23.3-80.708q-1.8.263-3.6.515c-8.724 25.162-17.009 51.2-22.6 78.9-5.663 28.045-8.264 50.394-8.376 68.692q-3.776-1.292-7.367-2.695c-2.335-16.913-1.536-37.936 3.221-64.891 4.873-27.611 13.838-53.535 23.777-78.579-1.225.139-2.449.289-3.677.419-9.622 24.49-18.241 49.877-23.034 77.018-4.679 26.524-5.569 47.585-3.49 64.733q-3.889-1.623-7.515-3.41c-4.4-15.679-5.239-35.251-1.488-60.376 4.084-27.351 13.321-52.207 24.474-76.907-1.268.109-2.533.241-3.8.344-10.747 24.146-19.6 48.585-23.636 75.588-3.631 24.31-3.055 43.686.766 59.467q-4.309-2.3-8.2-4.861c-5.663-14.148-7.7-31.667-5.037-53.831 3.246-26.968 13.1-51.408 25.456-75.588-1.307.089-2.615.182-3.925.264-11.886 23.683-21.3 47.781-24.517 74.531-2.472 20.563-1.182 37.3 3.107 51.13a69.111 69.111 0 01-11.141-10.592c-4.134-11.162-5.8-24.31-4.406-39.957 2.376-26.67 12.932-50.749 26.661-74.513-.383.023-.768.048-1.151.068-.975.052-1.94.091-2.906.134-13.18 23.312-23.244 47.123-25.613 73.72a107.487 107.487 0 001.522 32.034c-5.073-8.98-7.736-19.5-7.5-31.889.517-26.907 13.2-50.132 30.925-73.834-11.139.485-21.8.371-31.977-1.369-17.5 23.747-29.888 47.3-30.423 75.071-.759 39.38 24.868 60.836 63.916 73.788.084.048.171.094.255.139a96.872 96.872 0 008.581 6.474 86.772 86.772 0 0010.405 9.572 82.608 82.608 0 006.788 7.97 81.912 81.912 0 005.631 9.41 90.728 90.728 0 003.469 9.768c.26 3.724.659 7.246 1.189 10.594-.665 4.371-1.18 8.5-1.538 12.428-1.718 4.656-3.287 9.068-4.7 13.314-3.082 5.285-6.006 10.321-8.734 15.2l-.521.665c-4.371 5.558-8.56 10.893-12.521 16.1-5.948 6.125-11.656 12.039-17.046 17.859-6.617 5.859-13.034 11.629-19.152 17.394-8.923 7.082-17.5 14.077-25.568 21.116-48.05 35.506-85.688 70.093-91.287 118.613-4.235 36.72 10.326 79.244 44.517 129.986 27.248 40.44 67.832 79.253 110.859 116.953-33.581 60.6-47.365 131.954-23.221 220.5.141.521.325 1.034.476 1.553a278.36 278.36 0 0131.316-1.517c-.168-.576-.378-1.146-.535-1.724-21.421-78.553-12.194-143.478 14.406-199.392q4.325 3.711 8.658 7.405c-24.148 54.307-34.4 117.312-18.854 193.745 1.059.02 2.114 0 3.175.03-15.593-75.4-5.506-137.681 18.406-191.449q4.4 3.758 8.8 7.5l1.69 1.442c-20.553 51.772-29.626 111.4-17.278 183.091 1.059.073 2.123.176 3.184.258-12.428-70.784-3.539-129.77 16.793-181.05q5.2 4.432 10.364 8.843c-17.164 49.46-25.03 105.991-15.3 173.362 1.057.125 2.116.28 3.175.415-9.813-66.544-2.135-122.483 14.818-171.476q5.108 4.37 10.164 8.727c-13.909 47.36-20.513 101.061-12.932 164.5q1.575.256 3.155.531c-7.654-62.663-1.241-115.809 12.456-162.715q4.989 4.309 9.9 8.6c-10.715 45.435-15.813 96.661-10.02 156.472 1.043.216 2.082.41 3.125.638-5.861-59.078-.932-109.756 9.587-154.754q4.835 4.237 9.581 8.465a597.743 597.743 0 00-6.9 149.052c1.027.241 2.075.508 3.112.754a591.734 591.734 0 016.517-147.376q4.626 4.138 9.15 8.269a888.9 888.9 0 00-3.371 142.182q1.544.4 3.088.811a881.169 881.169 0 013.1-140.422q4.367 4.015 8.624 8.021c-.872 40.5-1.323 85.342.595 135.845 1.025.3 2.048.583 3.073.893-1.923-49.69-1.533-93.918-.693-133.929q4.11 3.9 8.1 7.8c2.679 39.547 4.016 82.305 4.9 130.084 1.022.346 2.036.722 3.057 1.08-.859-46.9-2.146-88.989-4.686-127.95q3.444 3.4 6.782 6.806c6.729 38.658 10.323 80.091 10.168 125.711 1.011.4 2.027.79 3.034 1.2a726.245 726.245 0 00-9.378-122.984q3.079 3.195 6.055 6.39a384.765 384.765 0 0115.5 121.911c1.009.476 2 .973 3.007 1.46a389.831 389.831 0 00-13.727-118.171q2.317 2.559 4.563 5.114c16 37.547 24.522 76.665 21.21 118.838-.016.191-.043.362-.061.552.973.549 1.934 1.109 2.893 1.677.052-.581.136-1.118.182-1.709 3.1-39.514-3.843-76.253-17.442-111.437.572.683 1.134 1.369 1.7 2.055 21.036 36.151 32.471 73.119 27.881 112.123-.255 2.16-.6 4.194-.95 6.226.936.652 1.884 1.287 2.807 1.957.432-2.4.826-4.843 1.127-7.41 3.964-33.663-3.458-65.64-18.424-96.745 23.439 32.686 36.068 65.524 30.59 99.212a102.59 102.59 0 01-3.08 13.1c.9.779 1.759 1.593 2.636 2.392a110.371 110.371 0 003.394-14.439c6.686-41.121-11.875-80.465-43.761-119.463q-6.195-10.633-13.419-21.162-5.7-12.113-12.319-24.029-4.613-12.851-9.916-25.417-2.987-12.362-6.385-24.417-1.883-16.5-4.257-32.474.195-15 .13-29.447c1.606-10.665 3.148-21.08 4.556-31.312 3.15-10.75 6.241-21.305 9.155-31.734 4.7-10.733 9.292-21.269 13.635-31.683 6.1-10.529 12.034-20.879 17.627-31.13 7.3-10.21 14.337-20.273 20.95-30.271q5.813-6.93 11.378-13.8 7.937-6.376 15.816-12.67c91.935-73.517 171.333-137.014 158.367-223.809zm-350.344-100.077a130.81 130.81 0 01-3.433-2c-.05-.308-.1-.624-.144-.936 1.208.515 2.422 1.018 3.654 1.513q-.041.714-.076 1.422zm.392-5.993q-2.351-.953-4.635-1.957c-.039-.339-.073-.686-.109-1.03q2.4.752 4.861 1.467c-.044.512-.078 1.014-.117 1.519zm120.752 639.715c.476 1.462.936 2.929 1.4 4.4q-2.351-2.464-4.752-4.93-.462-2.624-.945-5.23 2.18 2.878 4.297 5.76zm-4.454-13.036c.242.676.488 1.353.727 2.032-.695-.909-1.39-1.82-2.1-2.729-.178-.9-.351-1.795-.531-2.69q.962 1.693 1.904 3.386zm-2.779 8.574q-2.955-2.976-5.984-5.948-.257-3.742-.533-7.444 2.651 3.3 5.227 6.6.664 3.381 1.291 6.791zm-4.146-20.62q.639 2.928 1.251 5.879-2.037-2.559-4.117-5.114-.253-3.208-.519-6.392 1.716 2.809 3.386 5.627zm-3.178-13.856c.246 1.014.485 2.032.724 3.05-.535-.866-1.066-1.731-1.606-2.6-.1-1.078-.191-2.159-.289-3.232.398.927.783 1.854 1.172 2.781zm-28.332-596.752q4 .41 8.018.815-2.036 2.576-4.111 5.1-3.749-.557-7.472-1.121 1.798-2.379 3.566-4.795zm32.018 397.162q.02-1.688.025-3.378 6.872-6.171 13.868-12.219c-.082.5-.168 1-.255 1.5q-6.829 6.982-13.637 14.096zm12.449-7.406q-.725 3.892-1.528 7.784-5.649 6.636-11.29 13.385.175-4.073.274-8.141 6.25-6.576 12.545-13.028zm-13.47-24.916c-2.633-34.141-10.524-69.007-26.968-107.335-20.265-47.226-36.784-81.283-48.845-106.151-14.408-29.7-23.606-48.67-28.021-66.581q6-4.725 11.948-9.617c4.394 6.964 9.517 14.073 15.264 22.048 19.834 27.519 47 65.21 77.811 143.125 15.382 38.9 19.613 74.415 17.444 109.109q-9.337 7.621-18.632 15.402zm-48.464 135.836q-2.87-4.839-5.786-9.668 5.057-8.078 10.394-15.916 2.132 4.971 4.207 9.954-4.512 7.706-8.815 15.63zm10.492-11.577q2.033 4.955 4 9.932-3.509 7.247-6.873 14.679-2.757-4.784-5.569-9.558 4.117-7.63 8.443-15.052zm-18.339-1.49q-2.942-4.852-5.932-9.7 5.994-8.457 12.33-16.647 2.211 4.958 4.374 9.923-5.521 8.092-10.772 16.423zm-2.064 3.328q-5.071 8.228-9.818 16.72-3.755-4.78-7.544-9.57 5.45-8.675 11.3-17.068 3.052 4.959 6.062 9.919zm2.064 3.406q2.989 4.954 5.927 9.913-4.155 7.825-8.061 15.884-3.684-4.75-7.41-9.5 4.606-8.282 9.544-16.297zm7.982 13.4q2.9 4.934 5.747 9.879-3.253 7.367-6.323 14.93-3.574-4.695-7.2-9.394 3.76-7.822 7.776-15.418zm7.809 13.488q2.781 4.883 5.5 9.779-2.371 6.84-4.621 13.845-3.431-4.616-6.925-9.23 2.929-7.295 6.05-14.398zm1.743-3.927q3.174-7.083 6.5-14 1.907 4.889 3.749 9.806-2.528 6.7-4.964 13.546-2.617-4.683-5.286-9.356zm11.982.471q1.749 4.743 3.44 9.517-1.6 6.021-3.146 12.167-2.416-4.51-4.893-9 2.254-6.419 4.598-12.688zm1.76-4.665q2.405-6.315 4.879-12.5.871 4.384 1.7 8.788-1.718 6.123-3.41 12.362-1.561-4.341-3.169-8.652zm-1.733-4.613q-1.753-4.616-3.562-9.212 3.437-7.029 6.988-13.891 1.033 4.674 2 9.365-2.748 6.793-5.427 13.735zm-5.244-13.467q-1.9-4.76-3.859-9.5 4.469-7.558 9.114-14.918 1.165 4.807 2.255 9.626-3.814 7.303-7.514 14.789zm-5.533-13.544q-2.017-4.825-4.091-9.631 5.491-7.958 11.209-15.7 1.285 4.852 2.494 9.708-4.889 7.708-9.612 15.619zm5.686-42.444q6.653-7.815 13.5-15.419.588 4.661 1.091 9.33-6.041 7.64-11.941 15.476-1.286-4.695-2.651-9.391zm-1.251-4.3q-.953-3.222-1.936-6.449 7.483-7.688 15.257-15.166.41 2.782.783 5.567-7.144 7.914-14.105 16.046zm-1.227 7.235q1.39 4.848 2.708 9.695-5.952 8.026-11.69 16.283-2.109-4.842-4.273-9.667 6.484-8.28 13.254-16.314zm-14.964 12.5q-1.647-3.646-3.326-7.287 7.323-8.255 15.032-16.258 1.022 3.363 2.009 6.722-6.995 8.279-13.716 16.819zm-2.323 2.966q-6.519 8.412-12.7 17.1-2.388-3.861-4.795-7.725 6.806-8.58 14.073-16.881 1.724 3.748 3.421 7.502zm-14.893 20.2q-5.993 8.58-11.581 17.46-3.106-3.923-6.226-7.856 6.185-8.9 12.9-17.5 2.465 3.947 4.908 7.897zm-13.64 20.772q-5.314 8.637-10.2 17.574-3.751-3.848-7.508-7.706 5.4-9.093 11.362-17.866 3.187 4.006 6.345 7.999zm2.358 2.979q3.861 4.879 7.688 9.749-4.493 8.242-8.629 16.759-4.51-4.633-9.046-9.282 4.77-8.76 9.986-17.224zm10.031 12.736q3.807 4.856 7.565 9.7-3.686 7.814-7.091 15.865-4.428-4.582-8.9-9.177 4.033-8.322 8.425-16.387zm9.9 12.718q3.728 4.824 7.4 9.647-2.894 7.343-5.585 14.891-4.323-4.527-8.7-9.064 3.295-7.851 6.879-15.473zm9.731 12.727q3.611 4.77 7.15 9.542-2.135 6.83-4.121 13.831-4.176-4.449-8.419-8.909 2.585-7.331 5.385-14.463zm9.515 12.743q3.451 4.688 6.825 9.378a725.008 725.008 0 00-2.729 12.656q-3.981-4.339-8.037-8.683 1.895-6.755 3.936-13.351zm1.344-4.282q2.122-6.684 4.369-13.209 2.621 4.78 5.175 9.581-1.534 6.232-3 12.59-3.243-4.484-6.549-8.962zm11.759.556q2.405 4.589 4.74 9.2-.769 5.511-1.51 11.114-2.969-4.264-6.014-8.517 1.351-5.963 2.778-11.797zm1.223-5a994.35 994.35 0 012.807-10.971q1.541 4.452 3.03 8.932-.756 5.142-1.494 10.369-2.149-4.178-4.349-8.333zm4.294-16.6q1.411-5.276 2.847-10.465.666 3.752 1.3 7.524-.782 5.173-1.563 10.421-1.279-3.752-2.59-7.484zm3.453-24.326q-.714-3.683-1.467-7.356 2.074-5.115 4.185-10.148.109 3.687.189 7.4-1.461 5.013-2.913 10.1zm-2.667-13.112q-.905-4.254-1.861-8.5 3.267-6.219 6.6-12.317.212 4.257.375 8.547-2.573 6.079-5.12 12.267zm-3.023-13.6q-1.052-4.524-2.166-9.034 4.432-6.936 8.97-13.72.328 4.517.6 9.057-3.741 6.769-7.41 13.69zm-3.337-13.765q-1.179-4.643-2.424-9.285 5.563-7.445 11.278-14.708.455 4.63.838 9.278-4.902 7.267-9.698 14.708zm9.292-46.483q-.366-2.6-.756-5.193 7.4-7.053 15-13.934-.017 1.93-.052 3.865-7.154 7.537-14.198 15.255zm-32.859-398.077q-2.5 2.969-5.032 5.859-2.607-.786-5.18-1.579 2.167-2.761 4.319-5.59 2.93.655 5.887 1.302zm-2.991-5.212q1.913-2.59 3.8-5.239 3.389.543 6.808 1.078-2.2 2.788-4.43 5.517-3.109-.681-6.184-1.365zm-21.549 21.02q-2.665 3.082-5.346 6.073-1.425-.933-2.822-1.875 2.279-2.891 4.549-5.872 1.786.836 3.613 1.667zm-1.014-5.148q1.985-2.665 3.957-5.4 2.313.765 4.656 1.515-2.341 2.867-4.7 5.656-1.983-.889-3.919-1.778zm-9.694 12.531q1.288.888 2.594 1.765-3.016 3.3-6.05 6.492a132.872 132.872 0 01-1.749-1.879q2.597-3.137 5.199-6.39zm-7.7 3.567q-.806-.943-1.59-1.9a517.891 517.891 0 003.872-5.572q1.189.9 2.406 1.772a582.967 582.967 0 01-4.696 5.693zm7.205-8.854q-1.353-.953-2.679-1.927 1.712-2.549 3.428-5.173 1.716.868 3.458 1.718-2.106 2.725-4.215 5.374zm-5.524-4.08c-.856-.665-1.7-1.333-2.535-2.011q1.169-2.176 2.348-4.426 1.63.9 3.294 1.777-1.562 2.357-3.113 4.653zm-2.237 3.28q-1.685 2.446-3.36 4.822-.717-.943-1.412-1.9 1.278-2.306 2.579-4.7 1.075.891 2.185 1.771zm-3.237 10.863c.455.558.913 1.109 1.378 1.661q-2.546 3-5.085 5.909c-.211-.529-.426-1.057-.629-1.592q2.153-2.946 4.328-5.985zm3.852 4.5q.779.868 1.576 1.722-3.349 3.485-6.708 6.849-.4-.84-.788-1.688 2.951-3.379 5.912-6.891zm4.209 4.485c.579.59 1.167 1.18 1.756 1.765q-4.158 3.9-8.354 7.679-.471-.868-.929-1.738 3.763-3.779 7.52-7.714zm4.435 4.378q1.063 1.015 2.146 2.03-4.985 4.319-10.028 8.5-.632-1.046-1.242-2.086a642.92 642.92 0 009.117-8.452zm.123-5.244c-.649-.633-1.287-1.269-1.922-1.9q3.3-3.5 6.583-7.128 1.387.9 2.795 1.781-3.719 3.666-7.463 7.24zm7.442-12.137q2.867-3.222 5.711-6.544 1.924.851 3.87 1.69-3.26 3.424-6.558 6.747-1.532-.95-3.03-1.9zm8.585-9.964q2.481-2.966 4.938-6.018 2.44.762 4.914 1.512-2.85 3.181-5.731 6.274-2.085-.885-4.128-1.774zm11.221-20.073q-2.973-.677-5.918-1.371a400.52 400.52 0 003.082-4.738q3.26.56 6.547 1.1a492.237 492.237 0 01-3.718 5.003zm-2.952 3.882q-2.067 2.686-4.153 5.307-2.5-.786-4.959-1.587 1.753-2.491 3.492-5.044 2.789.663 5.613 1.317zm-6.677-6.141q-2.925-.711-5.816-1.444c.8-1.39 1.6-2.8 2.4-4.223q3.181.591 6.408 1.157-1.499 2.275-2.998 4.503zm-2.659 3.913q-1.664 2.412-3.342 4.765-2.439-.82-4.843-1.661 1.353-2.218 2.7-4.49 2.718.699 5.474 1.379zm-6.032 8.483q-1.862 2.552-3.734 5.036-1.907-.905-3.774-1.832 1.5-2.354 3.009-4.772 2.229.787 4.493 1.561zm-5.515-6.581q-2.405-.871-4.763-1.772.96-1.934 1.929-3.916 2.673.755 5.385 1.478c-.855 1.413-1.705 2.821-2.557 4.203zm-2.36 3.793q-1.4 2.228-2.8 4.4-1.859-.957-3.67-1.943 1.049-2.023 2.1-4.1 2.156.826 4.366 1.636zm-5.563-6.8q-2.275-.905-4.5-1.85.608-1.633 1.223-3.31 2.518.782 5.08 1.535c-.61 1.213-1.209 2.425-1.808 3.616zm-1.975 3.9a504.39 504.39 0 01-1.911 3.709q-1.729-.984-3.406-2c.417-1.114.843-2.242 1.269-3.385q2.001.846 4.043 1.669zm-3.813 7.339q-1.035 1.958-2.057 3.861a100.43 100.43 0 01-2.275-2.02q.673-1.774 1.369-3.6 1.456.885 2.958 1.753zm-3.947 7.353q-1.053 1.934-2.091 3.811-.591-.9-1.159-1.806c.173-.453.341-.9.516-1.356.292-.761.586-1.533.882-2.31q.91.835 1.846 1.655zm-.378-14.722a133.21 133.21 0 01-3.135-2.055c.18-.852.36-1.7.547-2.572q1.828.858 3.692 1.683-.562 1.484-1.11 2.938zm-1.456 3.847q-.56 1.483-1.109 2.925a87.35 87.35 0 01-1.961-1.984c.171-.868.341-1.738.521-2.627.837.564 1.685 1.127 2.543 1.68zm-2.576 6.779c-.321.845-.642 1.681-.957 2.508q-.413-.745-.813-1.5c.137-.781.273-1.563.421-2.36.439.451.89.9 1.343 1.346zm-.39 10.166c.258.4.52.8.784 1.2q-.964 1.725-1.92 3.408c-.08-.326-.157-.656-.237-.984q.667-1.795 1.367-3.63zm2.968 4.342c.378.519.756 1.034 1.144 1.547q-1.749 2.44-3.485 4.809-.229-.7-.451-1.412 1.374-2.43 2.787-4.95zm-1.02 18.617c.221.49.448.975.681 1.46q-3.454 3.42-6.9 6.731c-.032-.394-.064-.79-.091-1.187q3.134-3.442 6.304-7.007zm2.49 5.089c.271.524.549 1.046.829 1.567q-4.418 3.933-8.854 7.74a96.62 96.62 0 01-.179-1.33q4.086-3.914 8.198-7.983zm2.736 4.982q.564.974 1.148 1.95-5.392 4.425-10.82 8.711c-.128-.622-.244-1.241-.36-1.863q5.007-4.322 10.026-8.804zm113.718 308.627q2.071-1.777 4.153-3.542-2.138 2.167-4.278 4.339c.034-.271.08-.537.118-.803zm3.314-31.615c1.8-34.481-2.724-69.9-18.082-108.736-31.041-78.481-58.39-116.428-78.355-144.137-5.5-7.635-10.4-14.428-14.6-21.023q5.439-4.527 10.822-9.217c3.342 3.043 6.827 6.107 10.428 9.271 30.262 26.588 67.916 59.672 99.811 147.786 14.469 39.977 15.2 76.043 8.312 111.267q-9.157 7.327-18.343 14.783zm-102.49-290.522q4-3.848 7.968-7.827 1.606.987 3.237 1.968a541.01 541.01 0 01-8.916 8q-1.164-1.081-2.295-2.147zm10.956-10.863q3.462-3.54 6.884-7.2 2.146.909 4.315 1.809-3.861 3.776-7.784 7.442-1.728-1.034-3.421-2.058zm10.016-10.556q2.994-3.26 5.948-6.622 2.664.8 5.36 1.592-3.362 3.5-6.777 6.911-2.288-.949-4.537-1.887zm9.109-10.271q2.6-3.024 5.166-6.13 3.154.68 6.333 1.351-2.928 3.253-5.906 6.43-2.818-.833-5.596-1.657zm8.337-10a408.62 408.62 0 004.547-5.729q3.6.553 7.232 1.1a423.804 423.804 0 01-5.2 6.027l-6.584-1.404zm-.346-15.786q3.8.41 7.629.806a393.732 393.732 0 01-3.472 4.613q-3.563-.547-7.093-1.107a589.54 589.54 0 002.931-4.318zm-11.378-1.26q3.659.421 7.348.822-1.424 2.077-2.863 4.116-3.441-.557-6.852-1.13c.785-1.27 1.578-2.527 2.362-3.814zm-11.089-1.321q3.595.448 7.23.872c-.752 1.212-1.5 2.426-2.26 3.615q-3.4-.591-6.761-1.2c.592-1.099 1.189-2.184 1.786-3.294zm-10.827-1.408q3.561.485 7.169.948c-.563 1.034-1.126 2.068-1.69 3.084q-3.386-.639-6.72-1.3c.407-.909.821-1.824 1.236-2.738zm3.164 8.128q-1.155 2.023-2.31 4-2.911-.765-5.77-1.565c.583-1.217 1.164-2.44 1.75-3.686q3.138.634 6.325 1.245zm-13.488-9.6q3.414.516 6.882 1c-.392.85-.779 1.679-1.169 2.519q-3.262-.676-6.469-1.39c.246-.711.499-1.426.751-2.139zm3.775 7.651c-.551 1.162-1.1 2.317-1.649 3.453q-2.788-.8-5.524-1.649.56-1.541 1.132-3.121 2.99.667 6.036 1.307zm-13.638-9.226q3.28.55 6.61 1.073a582.71 582.71 0 01-.683 1.911q-3.172-.731-6.278-1.506c.114-.503.228-.988.346-1.487zm-1.362 5.779q2.86.718 5.779 1.4l-1.05 2.879q-2.686-.861-5.317-1.761c.186-.837.384-1.684.583-2.527zm3.214 8.41q-.564 1.517-1.112 3a175.678 175.678 0 01-4.262-1.952q.29-1.308.59-2.642 2.363.807 4.779 1.585zm-11.239-15.859c2.08.389 4.171.772 6.289 1.141-.1.419-.2.825-.294 1.237q-3.068-.793-6.071-1.631c.021-.257.05-.505.071-.756zm-.474 5.2q2.7.759 5.458 1.478c-.175.749-.353 1.506-.524 2.244q-2.573-.923-5.084-1.9c.042-.609.098-1.224.145-1.835zm-.444 6.387q2.173.834 4.394 1.633c-.173.772-.339 1.524-.51 2.285q-2.023-1.008-3.986-2.057c.024-.623.06-1.252.094-1.874zm-.271 6.638q1.582.824 3.2 1.624c-.148.679-.291 1.358-.437 2.025q-1.417-1.021-2.8-2.08c0-.529.018-1.058.032-1.582zm1.881 7.857c-.116.569-.235 1.143-.348 1.7-.524-.6-1.043-1.21-1.552-1.825-.011-.428-.018-.859-.025-1.292q.949.706 1.92 1.404zm-2.13 38.036q1.261-2.177 2.556-4.428l.274.822q-1.422 1.917-2.836 3.8a2.02 2.02 0 01.001-.207zm4.319.465c.164.415.33.829.5 1.241q-2.45 2.768-4.893 5.465c0-.28-.006-.565-.009-.845q2.182-2.894 4.395-5.874zm-13.319 21.886q3.055-3.232 6.153-6.569c.025.264.052.529.08.79q-3.136 2.976-6.257 5.872zm-1.561 6.806a739.576 739.576 0 008.39-7.8c.052.355.1.708.157 1.062q-4.323 3.673-8.649 7.246zm-1.132 6.465q5.221-4.3 10.478-8.779c.112.554.23 1.107.351 1.663q-5.5 4.3-11.018 8.478c.058-.466.119-.922.185-1.375zm-.775 6.866q6.322-4.76 12.626-9.681c4.636 17.973 13.959 37.21 28.4 66.982 12.041 24.825 28.531 58.823 48.747 105.941 16.433 38.3 24.166 73.157 26.608 107.371q-9.55 8.053-18.948 16.31c-7.13-34.08-18.39-68.845-35.879-106.642-48.482-104.769-64.45-144.197-61.558-180.294zm-12.749 4.084q5-3.988 10.068-8.123-.062.543-.116 1.086-5.091 3.82-10.176 7.554c.07-.189.145-.357.22-.53zm-2.97 7.549q6.249-4.555 12.522-9.232c-1.791 36.1 14.647 77.558 62.251 180.428 17.455 37.718 28.631 72.421 35.67 106.485q-9.476 8.4-18.7 17.036c-11.786-34.114-26.592-69.048-45.249-106.606-53.139-106.99-60.528-148.978-46.495-188.124zm-15.629 11.26q5.573-3.981 11.189-8.037c-11.841 38.724-3.2 83.481 48.5 187.563 18.613 37.471 33.367 72.323 45.1 106.371q-9.222 8.734-18.084 17.754c-16.9-34.918-35.606-70.144-55.353-107.332-57.873-108.984-56.386-154.2-31.356-196.332zm-15.6 11.093l1.929-1.369q3.4-2.419 6.834-4.857c-21.82 41.488-20.225 88.729 35.8 194.237 19.711 37.119 38.378 72.271 55.237 107.112q-8.713 8.99-16.97 18.294-3.926-6.205-7.875-12.426c-19.622-30.945-39.909-62.934-58.786-96.3-33.989-60.073-48.335-104.551-45.141-139.975 2.267-25.18 13.154-45.109 28.971-64.729zm-9.893 7.039c-12.007 17.043-20.1 35.036-22.084 57.084-3.317 36.768 11.246 82.355 45.825 143.465 18.932 33.458 39.25 65.5 58.9 96.483q3.841 6.062 7.663 12.1-8.067 9.243-15.6 18.827c-28.189-35.69-56.369-72.487-79.419-110.829-33.672-56.014-47.624-98.733-43.9-134.44 3.266-31.335 19.829-55.173 43.487-79.014q2.549-1.849 5.127-3.689zm44.417 372.711c-43.016-37.665-83.583-76.412-110.686-116.631-33.442-49.635-47.729-90.865-43.67-126.043 4.271-37.007 28.549-66.016 62.111-93.925-18.462 20.6-31.18 42.854-34.193 69.786-4.109 36.768 10.389 80.531 44.326 133.8 25.034 39.292 58.929 77.027 94.029 113.674q-6.287 9.473-11.913 19.325zm14.086-22.581c-35.123-36.651-69.046-74.369-94-113.528-33.239-52.173-47.481-94.684-43.535-129.966 4.078-36.458 27.312-64.453 58.652-91.857-16.788 19.861-28.524 41.148-31.239 67.216-3.873 37.143 10.312 81.032 44.638 138.127 23.082 38.4 51.212 75.162 79.364 110.816q-7.244 9.404-13.88 19.179zm16.743 49.171q-4.3-3.67-8.594-7.351 4.5-9.14 9.617-17.964 3.817 3.923 7.626 7.829-4.555 8.581-8.65 17.472zm13.078 11.146c-.581-.494-1.157-.989-1.738-1.483l-8.617-7.342q4.018-8.73 8.5-17.171 4.6 4.715 9.173 9.412-3.849 8.147-7.321 16.57zm12.918 11.016q-5.091-4.346-10.214-8.713 3.4-8.262 7.166-16.262 4.547 4.681 9.059 9.344-3.155 7.688-6.013 15.617zm12.679 10.877q-4.971-4.282-10-8.581 2.784-7.763 5.865-15.3 4.466 4.633 8.879 9.255-2.48 7.198-4.744 14.612zm12.385 10.738q-4.821-4.21-9.711-8.43 2.194-7.234 4.606-14.276 4.353 4.575 8.631 9.144-1.839 6.683-3.528 13.548zm12.021 10.588q-4.626-4.117-9.337-8.239 1.623-6.67 3.4-13.182 4.2 4.5 8.3 8.991a662.446 662.446 0 00-2.369 12.416zm11.588 10.426q-4.388-3.994-8.864-7.993 1.076-6.068 2.244-12.007 3.981 4.381 7.861 8.756-.644 5.552-1.243 11.23zm1.831-16.228q-3.724-4.182-7.536-8.365 1.244-6.113 2.568-12.1 3.232 4.538 6.38 9.084-.726 5.626-1.414 11.367zm9.223 26.437q-4.08-3.82-8.253-7.649.56-5.409 1.171-10.715 3.7 4.213 7.312 8.43-.121 4.91-.232 9.92zm.551-23.23c-.064 2.556-.128 5.144-.189 7.734q-3.389-3.936-6.868-7.873.632-5.375 1.3-10.658 2.942 4.312 5.807 8.633l-.049 2.15zm.2-8.349q-2.6-3.888-5.275-7.766.655-5.053 1.332-10.032 2.115 4.254 4.162 8.533-.105 4.586-.218 9.252zm.387-16.67q-1.735-3.543-3.508-7.071.6-4.305 1.216-8.551 1.247 3.885 2.456 7.793-.077 3.879-.162 7.816zm.351-17.95a651.66 651.66 0 00-1.59-4.9l1.016-6.859c.228 1.476.458 2.952.681 4.435q-.044 3.634-.106 7.309zm-.713-31.5q-.416-2.344-.845-4.681.875-3.116 1.759-6.2.024 2.286.039 4.581-.471 3.121-.952 6.285zm9.779 107.763q-3.742-3.632-7.588-7.267l.212-9.262q3.427 4.059 6.749 8.118.324 4.172.624 8.4zm-1.141-14.845q-3.01-3.636-6.1-7.269.106-4.48.214-8.886 2.645 4.066 5.2 8.141.354 3.981.687 8.002zm-1.4-15.708q-2.143-3.348-4.34-6.683l.182-7.558q1.788 3.83 3.513 7.681.337 3.254.65 6.548zm-2.064-19.808q.157 1.384.312 2.772-1.1-2.368-2.228-4.724.048-2.194.1-4.369.925 3.137 1.818 6.304zm.46-95.925l-.011.034q-1.039 3.553-2.091 7.141-.068-2.266-.155-4.522 1.388-3.27 2.779-6.508-.255 1.912-.517 3.842zm2.047-15.727q-2.31 5.316-4.626 10.711-.164-3.564-.365-7.111 2.888-5.221 5.8-10.358-.389 3.356-.803 6.746zm1.75-15.412q-3.574 6.26-7.132 12.629-.27-4.107-.587-8.2 4.219-6.246 8.5-12.374-.361 3.95-.775 7.933zm1.387-15.073q-4.815 6.854-9.583 13.848-.387-4.36-.832-8.706 5.47-6.885 11.021-13.626-.265 4.22-.6 8.472zm-10.98-.057q-.5-4.469-1.082-8.932 6.632-7.316 13.39-14.462-.14 4.353-.36 8.715-6.005 7.249-11.942 14.667zm15.164 13.783l-1.107 2.528q-.994 2.276-2 4.563.212-1.917.415-3.825 1.725-3.014 3.448-6.007-.368 1.359-.75 2.729zm4.237-15.661q-3.034 5.228-6.089 10.526.3-3.249.57-6.485 3.509-4.989 7.025-9.909-.732 2.917-1.5 5.857zm3.8-15.253q-4.391 6.109-8.786 12.307.266-3.81.479-7.613 4.965-5.98 9.952-11.866-.788 3.571-1.637 7.161zm5.832-1.319q-1.934 3.332-3.886 6.688c.234-.954.463-1.911.692-2.865q1.9-2.635 3.788-5.258zm6.234-15.4q-.936 1.3-1.879 2.6l-5.464 7.565q.625-2.843 1.225-5.681 4.008-4.705 8.011-9.358-.928 2.426-1.885 4.867zm5.627-14.932q-5.105 5.921-10.242 11.922.659-3.448 1.26-6.9 5.61-5.723 11.212-11.369-1.079 3.167-2.222 6.34zm13.891-16.148q-4.019 4.692-8.1 9.428.81-2.4 1.586-4.8 3.625-3.646 7.23-7.262c.424-.426.847-.85 1.269-1.276q-.977 1.944-1.978 3.903zm12.6-42.695l-8.827 7.061c6.209-34.79 4.957-70.6-9.433-110.356-32.292-89.223-70.351-122.663-100.936-149.531a938.422 938.422 0 01-9.021-8q4.77-4.22 9.477-8.581 3.925 2.33 7.963 4.688c40.449 23.7 90.784 53.2 120.567 143.945 13.515 41.189 10.62 77.95-1.132 113.84zm29.645-23.836q-8.088 6.574-16.4 13.233c10.617-35.157 12.629-71.428-.729-112.135-30.3-92.321-81.241-122.175-122.178-146.159q-2.99-1.753-5.909-3.472 4.121-3.9 8.18-7.909 3.43 1.411 6.906 2.825c53.631 21.888 114.415 46.695 140.993 137.078 12.487 42.425 5.867 79.931-10.855 116.532zm5.747-4.69c14.891-35.444 20.109-72.111 7.9-113.651-27.155-92.346-88.683-117.462-142.966-139.613l-4.4-1.8q3.554-3.588 7.048-7.28 3.458 1.011 6.955 2.027c64.84 18.868 138.333 40.255 161.31 128.852 11.28 43.492 1 81.624-20.565 118.8q-7.497 6.298-15.274 12.658zm22.789-19.05c18.661-35.394 26.747-72.139 15.884-114.032-23.585-90.918-97.95-112.56-163.56-131.651l-4.169-1.214q3.068-3.321 6.08-6.729 3.96.833 7.945 1.66c76.084 15.866 162.325 33.845 181.595 119.929 9.8 43.77-3.51 81.973-29.03 119.114q-7.173 6.444-14.737 12.916zm25.171-22.483c20.783-34.319 30.624-70.13 21.483-110.971-19.865-88.738-107.093-106.925-184.054-122.97l-5.007-1.045q2.669-3.1 5.287-6.271 4.838.717 9.709 1.435c91.608 13.492 186.332 27.439 201.911 110.64 7.581 40.481-5.5 76.123-30.4 110.472-5.954 6.245-12.286 12.471-18.922 18.703zm34.4-36.036c16.7-29.223 24.287-59.975 17.847-94.351-16.134-86.171-111.909-100.273-204.528-113.916l-6.722-.991q2.1-2.621 4.177-5.294l6.018.6c103.406 10.33 210.328 21.009 222.3 101.166 6.209 41.448-10.038 77.792-39.084 112.783z" transform="translate(1958.666 -583.621)" opacity=".18" fill="url(#a)"/></svg>