<svg xmlns="http://www.w3.org/2000/svg" width="14.722" height="14.722" viewBox="0 0 14.722 14.722">
  <g id="Group_81" data-name="Group 81" transform="translate(-1019.912 -14003)">
    <path id="Path_2938" data-name="Path 2938" d="M1242.522,758.937a1.716,1.716,0,1,0,1.716,1.716,1.715,1.715,0,0,0-1.716-1.716Zm12.924,7.922c-.226-1.861-1.074-3.018-3.586-3.018a3.062,3.062,0,0,0-2.881,1.328h-.046v-1.328H1246.2v9.818h2.863v-4.868c0-1.282.253-2.52,1.825-2.52s1.7,1.463,1.7,2.61v4.778h2.944v-5.392a11.376,11.376,0,0,0-.081-1.408Zm-14.641-.407v7.207h3.432v-9.818h-3.432v2.611Z" transform="translate(-220.894 13244.063)" fill="#ff0164" fill-rule="evenodd"/>
  </g>
</svg>
