<svg xmlns="http://www.w3.org/2000/svg" width="14.323" height="11.255" viewBox="0 0 14.323 11.255">
  <path id="Union_15" data-name="Union 15" d="M12461.278,1717.255a1.211,1.211,0,0,1-.835-.316l4.057-4.06c.1.075.194.141.279.2.3.225.551.4.741.523a4.642,4.642,0,0,0,.755.385,2.275,2.275,0,0,0,.88.194h.016a2.29,2.29,0,0,0,.88-.194,4.627,4.627,0,0,0,.754-.385c.188-.125.436-.3.739-.523.091-.063.185-.131.281-.2l4.058,4.057a1.221,1.221,0,0,1-.836.316Zm9.471-5.028q1.141-.8,2.776-1.9a4.305,4.305,0,0,0,.8-.7v6.174Zm-10.748-2.6a3.941,3.941,0,0,0,.809.7q1.695,1.155,2.767,1.9L12460,1715.8Zm7.16,3.535h-.006a1.314,1.314,0,0,1-.4-.072,2.742,2.742,0,0,1-.46-.216c-.163-.1-.3-.182-.416-.26s-.257-.178-.429-.3c-.091-.066-.163-.119-.223-.16l-.119-.084c-.222-.156-.494-.348-.808-.564q-.549-.385-1.287-.9c-.91-.632-1.458-1.011-1.637-1.14a3.881,3.881,0,0,1-.937-.923,1.856,1.856,0,0,1-.438-1.089,1.607,1.607,0,0,1,.332-1.039,1.133,1.133,0,0,1,.945-.416h11.766a1.288,1.288,0,0,1,1.28,1.277,2.127,2.127,0,0,1-.392,1.208,3.815,3.815,0,0,1-.974.983l-2.934,2.035c-.362.254-.635.442-.808.564-.028.019-.068.047-.119.084s-.131.094-.222.16c-.172.125-.316.225-.433.3s-.253.163-.416.26a2.686,2.686,0,0,1-.457.216,1.324,1.324,0,0,1-.4.072Z" transform="translate(-12460.001 -1706)" fill="#ff0164"/>
</svg>
