<svg xmlns="http://www.w3.org/2000/svg" width="15.151" height="12.4" viewBox="0 0 15.151 12.4">
  <path id="twitter" d="M5.653,12.4a13,13,0,0,1-2.008-.159,9.423,9.423,0,0,1-2.747-1L0,10.75l.972-.32c1.062-.349,1.709-.566,2.509-.905A3.337,3.337,0,0,1,1.765,7.538l-.226-.686.185.028A3.371,3.371,0,0,1,1.3,6.359a3.2,3.2,0,0,1-.542-1.9L.8,3.86,1.161,4a3.353,3.353,0,0,1-.325-.911A3.466,3.466,0,0,1,1.206.755L1.518.181l.418.5a7.69,7.69,0,0,0,4.982,2.8A2.98,2.98,0,0,1,7.1,1.9,2.964,2.964,0,0,1,8.3.523,3.619,3.619,0,0,1,10.4.007a3.355,3.355,0,0,1,2.062.851,6.923,6.923,0,0,0,.755-.252c.166-.062.353-.133.588-.214l.866-.3-.564,1.612.116-.008.924-.042L14.6,2.4c-.031.043-.039.055-.05.072-.044.066-.1.149-.849,1.15a1.412,1.412,0,0,0-.264.92,8.7,8.7,0,0,1-.475,3.5A6.191,6.191,0,0,1,11.3,10.5a7.34,7.34,0,0,1-3.479,1.682,10.711,10.711,0,0,1-2.173.213Zm0,0" transform="translate(0)" fill="#fff"/>
</svg>
