<svg xmlns="http://www.w3.org/2000/svg" width="13.434" height="13.435" viewBox="0 0 13.434 13.435">
  <path id="Path_2937" data-name="Path 2937" d="M1250.961,730.095a4.332,4.332,0,1,0-4.332,4.332,4.333,4.333,0,0,0,4.332-4.332Zm-.082-4.918a.7.7,0,1,0,.7.7.7.7,0,0,0-.7-.7Zm-7.789-1h7.084a2.384,2.384,0,0,1,2.381,2.381v7.085a2.384,2.384,0,0,1-2.381,2.381h-7.084a2.384,2.384,0,0,1-2.381-2.381v-7.085a2.383,2.383,0,0,1,2.381-2.381Zm7.084-.794h-7.084a3.183,3.183,0,0,0-3.175,3.175v7.085a3.188,3.188,0,0,0,3.175,3.175h7.084a3.183,3.183,0,0,0,3.175-3.175v-7.085a3.179,3.179,0,0,0-3.175-3.175Zm-6.974,6.714a3.431,3.431,0,1,1,3.428,3.435,3.436,3.436,0,0,1-3.428-3.435Z" transform="translate(-1239.915 -723.381)" fill="#fff" fill-rule="evenodd"/>
</svg>
