<svg id="Group_115" data-name="Group 115" xmlns="http://www.w3.org/2000/svg" width="13.927" height="13.927" viewBox="0 0 13.927 13.927">
  <path id="Path_2958" data-name="Path 2958" d="M13.526,8.441a6.46,6.46,0,0,0,.153-1.406A6.6,6.6,0,0,0,7.037.487,6.8,6.8,0,0,0,5.9.582,3.876,3.876,0,0,0,3.852,0,3.825,3.825,0,0,0,0,3.8,3.743,3.743,0,0,0,.529,5.72,6.49,6.49,0,0,0,.394,7.036a6.6,6.6,0,0,0,6.642,6.55,6.825,6.825,0,0,0,1.217-.11,3.885,3.885,0,0,0,1.822.451,3.825,3.825,0,0,0,3.852-3.8A3.744,3.744,0,0,0,13.526,8.441Zm-3.082,1.724a3.01,3.01,0,0,1-1.35,1.009,5.461,5.461,0,0,1-2.075.361,5.122,5.122,0,0,1-2.379-.493,3.087,3.087,0,0,1-1.093-.957A2.058,2.058,0,0,1,3.122,8.9.814.814,0,0,1,3.4,8.286a.98.98,0,0,1,.694-.254.888.888,0,0,1,.585.2,1.5,1.5,0,0,1,.389.561,3.239,3.239,0,0,0,.38.666,1.478,1.478,0,0,0,.558.427,2.334,2.334,0,0,0,.964.17A2.362,2.362,0,0,0,8.307,9.71.956.956,0,0,0,8.8,8.893a.8.8,0,0,0-.256-.621,1.831,1.831,0,0,0-.709-.386c-.3-.092-.712-.193-1.219-.3a9.739,9.739,0,0,1-1.741-.514,2.87,2.87,0,0,1-1.141-.823A2.026,2.026,0,0,1,3.3,4.939a2.107,2.107,0,0,1,.451-1.325,2.8,2.8,0,0,1,1.29-.883,5.707,5.707,0,0,1,1.949-.3,5.325,5.325,0,0,1,1.55.2,3.432,3.432,0,0,1,1.1.539,2.352,2.352,0,0,1,.646.716,1.563,1.563,0,0,1,.208.747.883.883,0,0,1-.272.632.919.919,0,0,1-.682.281.851.851,0,0,1-.572-.176,2.131,2.131,0,0,1-.4-.521,2.182,2.182,0,0,0-.6-.728,1.889,1.889,0,0,0-1.11-.252,2.1,2.1,0,0,0-1.151.28.747.747,0,0,0-.412.628.568.568,0,0,0,.133.38,1.176,1.176,0,0,0,.4.3,2.946,2.946,0,0,0,.534.2c.185.05.494.126.919.223.538.113,1.031.241,1.468.38a4.706,4.706,0,0,1,1.138.511,2.254,2.254,0,0,1,.749.779,2.312,2.312,0,0,1,.27,1.154A2.466,2.466,0,0,1,10.444,10.166Z" fill="#ff0164"/>
</svg>
