<svg xmlns="http://www.w3.org/2000/svg" width="66.248" height="56.646"><defs><linearGradient id="a" x1=".5" x2=".5" y2="1" gradientUnits="objectBoundingBox"><stop offset="0" stop-color="#ff0164"/><stop offset="1" stop-color="#8624db"/></linearGradient></defs><path d="M65.264 34.543l-7.556-16.186 3.262.936a1.349 1.349 0 00.744-2.594L39.033 10.19c0-.1.007-.194.007-.292a5.915 5.915 0 00-11.078-2.885L5.279.505A1.349 1.349 0 104.535 3.1l4.476 1.284L.9 21.748a1.35 1.35 0 00-.9 1.273 10.82 10.82 0 0018.486 7.638 10.694 10.694 0 003.228-7.638 1.35 1.35 0 00-.984-1.3L13.2 5.585l14.016 4.022c0 .1-.007.194-.007.292a5.925 5.925 0 004.567 5.759v26.731H28.05a5.422 5.422 0 00-5.45 5.365v.783a5.439 5.439 0 00-4.318 5.289v1.889a1.425 1.425 0 001.4 1.382h26.884a1.425 1.425 0 001.4-1.382v-1.888a5.439 5.439 0 00-4.318-5.289v-.783a5.423 5.423 0 00-5.448-5.366h-3.726V15.658a5.938 5.938 0 003.813-2.874l15.275 4.383-8.124 17.4a1.35 1.35 0 00-.9 1.273 10.82 10.82 0 0018.486 7.638 10.7 10.7 0 003.229-7.638 1.35 1.35 0 00-.984-1.3zM10.823 6.817l6.905 14.79H3.919zm0 24.263a8.069 8.069 0 01-8.012-6.774H18.9a8.187 8.187 0 01-8.074 6.774zM45.27 53.827v.573H20.979v-.572a2.721 2.721 0 012.753-2.666h18.785a2.721 2.721 0 012.753 2.666zm-4.318-6.073v.707H25.3v-.707a2.721 2.721 0 012.753-2.666H38.2a2.721 2.721 0 012.753 2.666zm-7.828-34.638a3.219 3.219 0 113.127-2.463 1.356 1.356 0 00-.076.264 3.222 3.222 0 01-3.051 2.2zm29.138 21.311h-13.81l6.9-14.79zM55.357 43.9a8.069 8.069 0 01-8.012-6.774H63.43a8.187 8.187 0 01-8.073 6.774zm0 0" transform="translate(0 -.452)" fill="url(#a)"/></svg>