<svg xmlns="http://www.w3.org/2000/svg" width="17.015" height="17.015"><defs><linearGradient id="a" x1=".5" x2=".5" y2="1" gradientUnits="objectBoundingBox"><stop offset="0" stop-color="#ff0164"/><stop offset="1" stop-color="#8624db"/></linearGradient></defs><path data-name="Path 2974" d="M37.52 34a3.52 3.52 0 103.52 3.52A3.524 3.524 0 0037.52 34zm0 6.454a2.934 2.934 0 112.934-2.934 2.937 2.937 0 01-2.934 2.934z" transform="translate(-24.026 -24.026)" fill="url(#a)"/><path data-name="Path 2975" d="M47.053 40.76h-1.466v-1.467a.293.293 0 00-.587 0v1.76a.293.293 0 00.293.293h1.76a.293.293 0 100-.587z" transform="translate(-31.799 -27.559)" fill="url(#a)"/><path data-name="Path 2976" d="M12.867 21H7v8.507h5.867v-5.28h5.28V21h-5.28zm2.64.587h2.053v2.053h-2.053zm-5.28 0h2.053v2.053h-2.053zm-2.64 0H9.64v2.053H7.587zm0 2.64H9.64v2.053H7.587zm2.053 4.694H7.587v-2.054H9.64zm2.64 0h-2.053v-2.054h2.053zm0-2.64h-2.053v-2.054h2.053zm2.64-2.64h-2.053v-2.054h2.053z" transform="translate(-4.947 -14.84)" fill="url(#a)"/><path data-name="Path 2977" d="M9.681 16.135H.587V4.694h14.081v3.813a.293.293 0 00.587 0v-7.04a.293.293 0 00-.293-.293h-1.468V.293A.293.293 0 0013.2 0h-2.052a.293.293 0 00-.293.293v.88H4.4v-.88A.293.293 0 004.107 0H2.053a.293.293 0 00-.293.293v.88H.293A.293.293 0 000 1.467v14.961a.293.293 0 00.293.293h9.388a.293.293 0 100-.587zM11.441.587h1.467v1.76h-1.467V.587zm-9.094 0h1.467v1.76H2.347V.587zM.587 1.76H1.76v.88a.293.293 0 00.293.293h2.054A.293.293 0 004.4 2.64v-.88h6.454v.88a.293.293 0 00.293.293H13.2a.293.293 0 00.293-.293v-.88h1.173v2.347H.587z" fill="url(#a)"/></svg>