<svg xmlns="http://www.w3.org/2000/svg" width="215.621" height="97.416"><defs><linearGradient id="a" x1=".473" y1="-.139" x2=".535" y2="1.141" gradientUnits="objectBoundingBox"><stop offset=".005" stop-color="#ff0164"/><stop offset=".341" stop-color="#e8087b"/><stop offset=".355" stop-color="#e3097f"/><stop offset=".477" stop-color="#c112a0"/><stop offset=".601" stop-color="#a71aba"/><stop offset=".727" stop-color="#941fcc"/><stop offset=".858" stop-color="#8922d7"/><stop offset="1" stop-color="#8624db"/></linearGradient></defs><g data-name="Group 121"><g data-name="Group 43"><path data-name="Path 11" d="M445.719 542.51c-1.226-7.89-11.855-8.911-22.134-9.9-.974-.094-1.941-.187-2.9-.285a32.483 32.483 0 004.541-8.035 28.756 28.756 0 001.862-13.27c-.095.077-.192.152-.288.227a28.171 28.171 0 01-1.834 12.836 32.1 32.1 0 01-4.7 8.2l-.821-.088a33.481 33.481 0 004.26-7.917 31.993 31.993 0 002.056-12.256c-.1.07-.2.144-.3.213a31.416 31.416 0 01-2.022 11.843 33.252 33.252 0 01-4.37 8.076q-.4-.045-.786-.092a35.454 35.454 0 003.9-7.8 36.454 36.454 0 002.143-11.3c-.1.061-.2.119-.307.179a35.862 35.862 0 01-2.1 10.931 34.96 34.96 0 01-4.021 7.943q-.385-.048-.764-.1a38.969 38.969 0 003.534-7.666 43.872 43.872 0 002.231-10.49c-.107.055-.212.113-.32.167a43.316 43.316 0 01-2.18 10.138 38.39 38.39 0 01-3.63 7.8q-.383-.053-.759-.109a45.469 45.469 0 003.141-7.522 56.171 56.171 0 002.246-9.752c-.107.047-.217.088-.325.133a55.671 55.671 0 01-2.192 9.442 44.793 44.793 0 01-3.216 7.646q-.383-.06-.759-.124a59.337 59.337 0 002.73-7.36 83.645 83.645 0 002.263-9.146l-.33.117a83.722 83.722 0 01-2.207 8.861 58.626 58.626 0 01-2.786 7.47q-.375-.067-.742-.138a104.21 104.21 0 002.284-7.179c.829-2.956 1.625-5.813 2.268-8.635-.113.033-.223.07-.336.1-.63 2.737-1.4 5.508-2.208 8.375-.816 2.91-1.6 5.29-2.321 7.275q-.372-.076-.734-.157c.257-1.008.549-2.127.878-3.382.286-1.091.6-2.284.936-3.594.454-1.759.934-3.469 1.4-5.124.293-1.043.579-2.071.855-3.089-.112.026-.226.048-.338.073q-.385 1.414-.794 2.858c-.465 1.657-.945 3.37-1.4 5.135-.338 1.309-.651 2.5-.936 3.592-.336 1.285-.636 2.43-.9 3.461q-.371-.088-.731-.183c.246-1.795.681-3.985 1.328-6.74s1.468-5.365 2.265-7.887c-.115.021-.23.039-.345.059-.776 2.46-1.569 5-2.2 7.693-.649 2.762-1.084 4.974-1.33 6.8q-.369-.1-.724-.213a32.528 32.528 0 01.819-6.466 56.223 56.223 0 012.291-7.631l-.354.049a55.585 55.585 0 00-2.223 7.46 33.222 33.222 0 00-.824 6.5q-.371-.122-.724-.255a19.271 19.271 0 01.317-6.135 37 37 0 012.338-7.43l-.362.04a36.8 36.8 0 00-2.265 7.282 20.261 20.261 0 00-.343 6.121q-.383-.154-.739-.322a13.168 13.168 0 01-.146-5.709 26.621 26.621 0 012.407-7.272c-.125.01-.249.023-.374.033a26.593 26.593 0 00-2.324 7.147 14.159 14.159 0 00.075 5.623q-.424-.217-.806-.46a9.884 9.884 0 01-.5-5.09 20.672 20.672 0 012.5-7.147l-.386.025a20.706 20.706 0 00-2.411 7.047 11.152 11.152 0 00.305 4.834 6.678 6.678 0 01-1.1-1 8.26 8.26 0 01-.433-3.778 16.7 16.7 0 012.622-7.045l-.113.006-.286.013a16.773 16.773 0 00-2.519 6.97 9.777 9.777 0 00.15 3.029 5.6 5.6 0 01-.737-3.015c.051-2.544 1.3-4.74 3.041-6.981a15.442 15.442 0 01-3.145-.13c-1.721 2.245-2.939 4.473-2.992 7.1-.075 3.724 2.446 5.752 6.286 6.977l.025.013a9.44 9.44 0 00.844.612 8.385 8.385 0 001.023.905 7.922 7.922 0 00.668.754 7.63 7.63 0 00.554.89 8.311 8.311 0 00.341.923c.026.352.065.685.117 1-.065.413-.116.8-.151 1.175-.169.44-.323.857-.462 1.259-.3.5-.591.976-.859 1.437l-.051.063c-.43.526-.842 1.03-1.231 1.523-.585.579-1.147 1.138-1.677 1.688-.651.554-1.282 1.1-1.884 1.645a66.774 66.774 0 00-2.514 2c-4.726 3.357-8.427 6.627-8.978 11.215-.417 3.472 1.016 7.493 4.378 12.291 2.68 3.824 6.671 7.494 10.9 11.058-3.3 5.73-4.658 12.477-2.284 20.849.014.05.032.1.047.147a28.416 28.416 0 013.08-.143c-.017-.055-.037-.109-.053-.163-2.107-7.427-1.2-13.566 1.417-18.853l.852.7a28.246 28.246 0 00-1.854 18.319h.312a27.755 27.755 0 011.81-18.1l.866.709.166.136a30.137 30.137 0 00-1.7 17.312l.313.025a29.647 29.647 0 011.652-17.119l1.019.836A32.777 32.777 0 00413 602.5l.312.039a32.278 32.278 0 011.457-16.214l1 .825a36.669 36.669 0 00-1.272 15.553l.31.05a36.172 36.172 0 011.225-15.385q.49.407.974.813a43 43 0 00-.986 14.795c.1.021.2.039.307.06a42.479 42.479 0 01.943-14.633q.476.4.942.8a54.377 54.377 0 00-.679 14.093l.306.071a53.832 53.832 0 01.641-13.935q.455.391.9.782a80.862 80.862 0 00-.332 13.444l.3.077a80.135 80.135 0 01.3-13.277q.43.38.848.758c-.086 3.829-.13 8.069.058 12.845l.3.084c-.189-4.7-.151-8.88-.068-12.663l.8.737c.263 3.74.395 7.782.482 12.3.1.033.2.068.3.1-.085-4.434-.211-8.414-.461-12.1q.339.322.667.643a65.056 65.056 0 011 11.886l.3.114a66.1 66.1 0 00-.922-11.629l.6.6a35.068 35.068 0 011.525 11.527l.3.138a35.516 35.516 0 00-1.35-11.173q.228.242.449.484a22.722 22.722 0 012.086 11.237c0 .018 0 .034-.006.052q.143.078.284.159c.005-.055.013-.106.018-.161a22.833 22.833 0 00-1.715-10.537l.167.194c2.069 3.418 3.193 6.914 2.742 10.6-.025.2-.059.4-.093.589.092.062.185.122.276.185.043-.227.081-.458.111-.7a15.825 15.825 0 00-1.812-9.148c2.305 3.091 3.547 6.2 3.008 9.381a9.384 9.384 0 01-.3 1.239c.088.073.173.15.259.226a10.152 10.152 0 00.334-1.365c.657-3.888-1.168-7.609-4.3-11.3q-.609-1.005-1.32-2-.56-1.145-1.212-2.272-.454-1.215-.975-2.4-.294-1.169-.628-2.309-.185-1.56-.419-3.071c.013-.946.019-1.872.013-2.784.158-1.008.31-1.993.448-2.961.31-1.016.614-2.014.9-3a168.64 168.64 0 001.341-3c.6-1 1.184-1.974 1.734-2.943a98.422 98.422 0 002.06-2.862q.571-.655 1.119-1.3.781-.6 1.555-1.2c9.035-6.937 16.844-12.941 15.568-21.148zm-34.455-9.463a13.446 13.446 0 01-.337-.189c0-.029-.01-.059-.014-.089.119.048.238.1.359.143zm.039-.567q-.231-.09-.456-.185c0-.032-.007-.065-.011-.1q.236.071.478.138a3.11 3.11 0 01-.014.148zm11.876 60.487c.047.138.092.277.137.416q-.231-.233-.467-.466l-.093-.494.422.545zm-.438-1.233l.071.192-.206-.258-.052-.254zm-.273.811q-.29-.281-.588-.562-.025-.354-.052-.7.261.312.514.624.063.316.125.639zm-.408-1.95q.063.277.123.556l-.4-.483-.051-.6q.168.262.327.532zm-.312-1.31l.071.289-.158-.246-.028-.306c.037.089.076.178.114.264zm-2.787-56.425l.789.077-.4.482-.735-.106.345-.452zm3.149 37.553v-.319q.676-.584 1.364-1.155l-.025.142q-.67.66-1.34 1.333zm1.224-.7q-.071.368-.15.736-.556.627-1.11 1.266.017-.385.027-.77.613-.621 1.232-1.231zm-1.325-2.356a30.362 30.362 0 00-2.652-10.149c-1.993-4.465-3.617-7.686-4.8-10.037a34.007 34.007 0 01-2.756-6.3q.59-.447 1.175-.909c.432.659.936 1.331 1.5 2.085a54.694 54.694 0 017.652 13.533 22.522 22.522 0 011.716 10.317q-.921.726-1.835 1.461zm-4.767 12.843q-.282-.457-.569-.914.5-.764 1.022-1.5.21.47.414.941-.444.726-.867 1.473zm1.032-1.095q.2.468.394.939-.345.685-.676 1.388-.271-.452-.548-.9.405-.723.83-1.425zm-1.8-.141q-.29-.459-.584-.917.589-.8 1.213-1.574.218.469.43.938-.546.768-1.062 1.556zm-.2.315q-.5.778-.966 1.581l-.742-.9q.536-.82 1.111-1.614l.591.935zm.2.322q.294.468.583.937-.409.74-.793 1.5-.362-.449-.729-.9.45-.777.936-1.538zm.785 1.267q.285.466.565.934-.32.7-.622 1.411-.352-.444-.708-.888.367-.737.762-1.455zm.768 1.275q.273.462.541.925-.233.647-.455 1.309-.338-.436-.681-.873.285-.687.592-1.359zm.171-.371q.312-.67.639-1.323.188.462.369.927-.249.633-.488 1.281-.26-.441-.518-.883zm1.178.045q.172.448.338.9-.157.569-.309 1.15-.237-.426-.481-.851.219-.605.449-1.198zm.173-.441q.237-.6.48-1.182.086.415.167.831-.169.579-.335 1.169-.161-.409-.314-.817zm-.171-.436q-.172-.437-.35-.871.338-.664.687-1.313l.2.885q-.275.644-.539 1.3zm-.516-1.273q-.187-.45-.379-.9.44-.714.9-1.411.115.454.222.91-.381.694-.745 1.402zm-.544-1.281l-.4-.911q.54-.752 1.1-1.484.126.459.245.918-.482.73-.947 1.478zm.559-4.013q.654-.739 1.327-1.458.058.441.107.882-.594.722-1.174 1.463-.128-.442-.261-.886zm-.123-.406l-.191-.61q.736-.727 1.5-1.434.04.263.077.527-.703.75-1.388 1.518zm-.121.684q.137.458.266.917-.586.759-1.15 1.539-.208-.457-.42-.914.637-.782 1.303-1.541zm-1.472 1.182q-.162-.345-.327-.689.72-.781 1.478-1.537l.2.636q-.691.783-1.352 1.59zm-.228.28q-.641.8-1.249 1.617l-.472-.73q.669-.811 1.384-1.6l.336.714zm-1.465 1.91q-.589.812-1.139 1.651l-.612-.743q.609-.842 1.269-1.655l.481.748zm-1.341 1.964q-.523.817-1 1.662l-.738-.729q.531-.859 1.118-1.689zm.232.282q.38.461.756.922-.442.779-.849 1.585l-.89-.878q.468-.828.981-1.628zm.986 1.2q.374.459.744.918-.363.739-.7 1.5-.435-.433-.875-.868.398-.782.83-1.545zm.973 1.2q.366.456.727.912-.285.695-.549 1.408-.425-.428-.855-.857.323-.732.676-1.455zm.957 1.2q.355.451.7.9-.21.646-.405 1.308-.411-.421-.828-.842.258-.68.532-1.355zm.936 1.2q.339.443.671.887-.138.592-.268 1.2-.391-.41-.79-.821.185-.626.386-1.25zm.132-.4q.209-.632.43-1.249.258.452.509.906-.151.589-.3 1.19-.315-.416-.64-.836zm1.156.053q.237.434.466.87-.075.521-.149 1.051-.292-.4-.591-.805.133-.553.275-1.105zm.12-.473q.136-.524.276-1.037.151.421.3.844-.074.486-.147.98-.213-.383-.429-.776zm.422-1.57q.139-.5.28-.99.066.355.128.711l-.154.986-.254-.696zm.34-2.3q-.07-.348-.144-.7.2-.483.412-.959.011.349.019.7l-.287.97zm-.262-1.24q-.089-.4-.183-.8.321-.588.649-1.165.021.4.037.808-.253.583-.504 1.168zm-.3-1.286q-.1-.427-.213-.854.436-.656.882-1.3.033.427.059.856-.365.655-.726 1.309zm-.328-1.3q-.116-.439-.238-.878.547-.7 1.109-1.391.045.438.083.877-.481.698-.952 1.401zm.914-4.4l-.074-.491q.728-.667 1.476-1.317 0 .183-.005.366-.702.726-1.395 1.456zm-3.231-37.64q-.245.281-.495.554l-.51-.149q.213-.261.425-.528zm-.294-.493q.188-.245.374-.5l.67.1q-.217.264-.436.522zm-2.119 1.988q-.262.292-.526.574-.14-.088-.277-.177.224-.273.448-.555zm-.1-.487q.2-.252.389-.511l.458.143q-.23.271-.463.535zm-.953 1.185l.255.167c-.2.208-.4.412-.595.614q-.087-.088-.172-.178c.171-.183.342-.385.513-.589zm-.757.337q-.08-.089-.156-.179.19-.259.381-.527.117.085.237.168-.231.288-.462.552zm.708-.837a13.48 13.48 0 01-.263-.182q.168-.241.337-.489l.34.163q-.206.272-.413.523zm-.543-.386q-.126-.094-.249-.19.115-.206.231-.419c.107.057.215.113.324.168q-.153.238-.306.455zm-.22.31l-.33.456-.139-.18q.126-.218.254-.444.106.1.219.183zm-.318 1.027l.135.157q-.25.284-.5.559l-.062-.151q.213-.263.427-.55zm.379.425l.155.163q-.33.329-.66.648l-.078-.159q.291-.305.583-.634zm.414.424l.173.167q-.409.368-.821.726-.047-.082-.091-.164.368-.342.739-.714zm.436.414l.211.192q-.49.409-.986.8l-.122-.2c.299-.24.599-.505.897-.777zm.012-.5l-.189-.18q.325-.331.647-.674l.275.168q-.364.366-.733.705zm.732-1.147q.282-.3.562-.619l.381.16q-.321.324-.645.638zm.844-.942q.244-.28.486-.569l.483.143q-.28.3-.564.593zm1.1-1.9q-.293-.064-.582-.13c.1-.147.2-.3.3-.448l.644.1a5.041 5.041 0 01-.357.499zm-.291.367q-.2.254-.409.5l-.487-.15q.172-.236.343-.477zm-.657-.581q-.288-.067-.572-.137c.079-.131.158-.265.236-.4q.313.056.63.11-.141.238-.289.448zm-.261.37q-.164.228-.329.451-.24-.078-.476-.157.133-.21.265-.425.273.088.545.152zm-.593.8q-.183.241-.367.476-.188-.086-.371-.173l.3-.451q.22.098.445.171zm-.542-.622q-.237-.082-.469-.168l.19-.37q.263.071.53.14-.122.224-.247.421zm-.232.358q-.138.211-.276.416-.183-.09-.361-.183.1-.192.207-.388c.146.076.289.132.434.179zm-.547-.643q-.224-.086-.443-.175l.12-.313q.248.074.5.145a3.259 3.259 0 01-.173.363zm-.194.369q-.094.178-.188.351a15.335 15.335 0 01-.335-.189l.125-.32q.201.104.402.181zm-.375.694q-.1.185-.2.365-.113-.094-.224-.191l.135-.341q.145.108.292.191zm-.388.7l-.206.36q-.058-.085-.114-.171l.051-.128.087-.218c.067.072.124.124.185.176zm-.037-1.392q-.156-.1-.308-.194l.054-.243q.18.081.363.159zm-.143.364l-.109.277q-.1-.093-.193-.188l.051-.248c.086.072.17.125.254.178zm-.253.641l-.094.237q-.041-.07-.08-.142l.042-.223c.05.062.09.104.135.146zm-.038.961l.077.113-.189.322-.023-.093zm.292.411l.112.146q-.172.231-.343.455a5.254 5.254 0 01-.044-.134q.139-.211.277-.449zm-.1 1.76l.067.138q-.339.323-.678.637c0-.037-.006-.075-.009-.112q.31-.307.622-.644zm.245.481l.081.148q-.434.372-.871.732l-.017-.126q.404-.351.809-.735zm.269.471q.055.092.113.184-.53.418-1.064.824a5.472 5.472 0 01-.035-.176c.33-.253.659-.53.988-.813zm11.184 29.182l.408-.335-.421.411zm.326-2.989a23.036 23.036 0 00-1.778-10.281 55.1 55.1 0 00-7.706-13.629c-.541-.722-1.023-1.364-1.436-1.988q.535-.428 1.064-.872c.329.288.671.578 1.026.877 2.976 2.514 6.679 5.642 9.816 13.974a18.381 18.381 0 01.817 10.521q-.898.711-1.801 1.416zm-10.08-27.47q.394-.364.784-.74l.318.186q-.435.384-.877.756zm1.078-1.027q.34-.335.677-.681l.424.171q-.38.357-.766.7zm.985-1q.294-.309.585-.626l.527.151q-.331.331-.666.653zm.9-.971q.256-.286.508-.579l.623.128q-.288.308-.581.608zm.82-.945c.15-.179.3-.359.447-.542l.711.1c-.169.193-.34.382-.512.57zm-.034-1.493l.75.076q-.17.22-.342.436l-.7-.1c.097-.119.193-.255.289-.392zm-1.119-.119l.723.078q-.14.2-.282.389l-.674-.107c.075-.1.153-.219.23-.34zm-1.09-.125l.711.083a50.89 50.89 0 01-.222.342q-.335-.056-.665-.114c.056-.084.114-.186.173-.294zm-1.065-.133q.35.046.705.09c-.056.1-.111.2-.166.292q-.333-.061-.661-.124zm.311.768l-.227.378q-.286-.072-.567-.148l.172-.348q.306.08.619.138zm-1.327-.908q.336.049.677.095l-.115.238q-.321-.064-.636-.131zm.371.724l-.162.327q-.274-.076-.543-.156l.111-.3q.292.088.592.149zm-1.341-.872q.322.052.65.1l-.067.181q-.312-.069-.617-.142zm-.134.546q.281.068.568.132l-.1.272q-.264-.082-.523-.167l.053-.217zm.316.8l-.109.284q-.213-.09-.419-.185l.058-.25q.23.092.468.166zm-1.105-1.5q.306.055.618.108l-.029.117q-.3-.075-.6-.154c.004-.008.006-.032.009-.056zm-.047.491q.266.072.537.14l-.052.212q-.253-.087-.5-.18c.003-.04.008-.099.016-.156zm-.044.6q.214.079.432.155l-.05.216q-.2-.095-.392-.194l.008-.157zm-.027.628q.156.078.315.153l-.043.192q-.14-.1-.275-.2c-.001-.026 0-.072.001-.126zm.185.743l-.034.161q-.077-.085-.153-.173v-.122q.09.087.185.153zm-.21 3.6l.252-.419.027.078q-.14.182-.279.359c-.003.012-.003.004-.003-.002zm.425.044l.049.117q-.241.262-.481.517v-.08q.213-.256.431-.538zm-1.31 2.069q.3-.306.605-.621c0 .025.005.05.008.075q-.309.281-.615.555zm-.154.644q.411-.362.825-.737l.016.1q-.425.347-.851.685zm-.111.611q.513-.407 1.03-.83c.011.052.023.1.034.157q-.541.407-1.084.8c.006-.025.013-.065.019-.111zm-.076.649q.622-.45 1.242-.915a36.178 36.178 0 002.793 6.333c1.184 2.347 2.806 5.562 4.794 10.017a29.8 29.8 0 012.617 10.152q-.939.761-1.863 1.542a45.047 45.047 0 00-3.529-10.084c-4.769-9.888-6.34-13.616-6.055-17.032zm-1.254.386q.492-.377.99-.768c0 .034-.008.068-.011.1q-.5.362-1 .714zm-.292.714q.615-.431 1.232-.873c-.176 3.414 1.441 7.333 6.122 17.06a44.456 44.456 0 013.508 10.069q-.932.794-1.839 1.611a83.164 83.164 0 00-4.45-10.08c-5.227-10.1-5.954-14.074-4.574-17.774zm-1.537 1.065q.548-.376 1.1-.76c-1.165 3.662-.315 7.894 4.769 17.735A82.434 82.434 0 01417.5 571.2q-.907.826-1.778 1.679c-1.662-3.3-3.5-6.632-5.444-10.149-5.693-10.303-5.547-14.579-3.085-18.562zm-1.534 1.049l.19-.129.672-.459c-2.146 3.923-1.989 8.389 3.521 18.366 1.939 3.51 3.774 6.834 5.432 10.128q-.857.85-1.669 1.73l-.775-1.175c-1.93-2.926-3.925-5.951-5.781-9.105-3.343-5.68-4.754-9.886-4.44-13.235a10.891 10.891 0 012.849-6.106zm-.973.666a10.545 10.545 0 00-2.172 5.4c-.326 3.477 1.106 7.787 4.507 13.565 1.862 3.164 3.86 6.193 5.793 9.123l.754 1.144q-.794.874-1.534 1.78a102.7 102.7 0 01-7.811-10.479c-3.312-5.3-4.684-9.336-4.318-12.712.321-2.963 1.95-5.216 4.277-7.471zm4.368 35.241c-4.23-3.561-8.22-7.225-10.886-11.028-3.289-4.693-4.694-8.592-4.3-11.918.42-3.5 2.808-6.242 6.109-8.881a11.549 11.549 0 00-3.363 6.6c-.4 3.477 1.022 7.615 4.359 12.651a73.493 73.493 0 009.248 10.748q-.614.912-1.168 1.843zm1.385-2.135a73.4 73.4 0 01-9.244-10.735c-3.269-4.933-4.67-8.953-4.282-12.289.4-3.447 2.686-6.094 5.768-8.685a11.343 11.343 0 00-3.072 6.355c-.381 3.512 1.014 7.662 4.39 13.061a102.689 102.689 0 007.805 10.478q-.713.906-1.365 1.83zm1.647 4.649l-.845-.695q.443-.864.946-1.7l.75.74q-.449.833-.852 1.67zm1.286 1.054l-.171-.14-.847-.694q.395-.826.835-1.624l.9.89q-.376.787-.718 1.583zm1.27 1.042l-1-.824q.334-.781.7-1.538l.891.884q-.31.743-.591 1.493zm1.247 1.029l-.983-.811q.274-.734.577-1.447.439.438.873.875-.244.697-.467 1.397zm1.218 1.015q-.474-.4-.955-.8.216-.684.453-1.35.428.433.849.865-.181.651-.347 1.3zm1.182 1q-.455-.389-.918-.779.16-.631.334-1.247.413.425.817.85c-.081.404-.159.795-.233 1.192zm1.14.986q-.431-.378-.871-.756.106-.574.221-1.135.391.414.773.828-.064.542-.123 1.078zm.18-1.534q-.366-.4-.741-.791.122-.578.253-1.144.318.429.627.859-.072.548-.139 1.091zm.907 2.5q-.4-.362-.812-.723.055-.512.115-1.013.364.4.719.8l-.022.951zm.054-2.2l-.018.731q-.334-.372-.675-.745.062-.508.128-1.008.29.408.571.816l-.006.224zm.02-.79q-.256-.367-.519-.734l.131-.948q.208.4.409.807-.012.451-.021.894zm.038-1.576q-.17-.335-.345-.668.059-.407.12-.808.123.367.241.737-.007.386-.016.758zm.034-1.7c-.052-.155-.1-.31-.156-.463l.1-.649.067.42-.011.714zm-.07-2.978l-.083-.443.173-.586v.433zm.962 10.189q-.368-.344-.746-.687l.021-.876q.337.384.664.768l.061.817zm-.112-1.4l-.6-.687.021-.84q.26.384.511.77l.068.775zm-.137-1.485q-.211-.316-.427-.632l.018-.715q.176.362.345.726l.064.639zm-.2-1.873l.031.262q-.108-.224-.219-.446l.01-.413q.087.315.172.615zm.045-9.07l-.206.675-.015-.427q.136-.309.273-.615l-.055.385zm.2-1.487q-.227.5-.455 1.013-.016-.337-.036-.673.284-.493.57-.979-.04.336-.081.657zm.172-1.457q-.352.592-.7 1.194-.027-.388-.058-.775.415-.591.836-1.17-.039.392-.08.764zm.136-1.425q-.474.648-.942 1.309-.038-.412-.082-.823.538-.651 1.084-1.288-.028.417-.061.819zm-1.08-.005q-.05-.423-.107-.845.652-.692 1.317-1.367-.014.411-.035.824-.592.703-1.176 1.405zm1.491 1.3l-.109.239-.2.431.041-.362.339-.568zm.417-1.481q-.3.495-.6 1 .03-.307.056-.613.345-.472.691-.937-.072.292-.148.574zm.374-1.442q-.432.578-.864 1.164.026-.361.047-.72.488-.566.979-1.122-.08.359-.163.698zm.574-.125l-.382.632.068-.271.373-.5zm.613-1.456l-.185.245-.538.715q.062-.269.121-.537.394-.445.788-.885-.093.252-.187.483zm.553-1.412l-1.007 1.128q.065-.326.124-.652.552-.541 1.1-1.075-.106.32-.218.62zm1.366-1.527l-.8.892q.08-.227.156-.454l.711-.687.125-.121q-.094.206-.193.391zm1.239-4.037l-.868.668a18.842 18.842 0 00-.928-10.435c-3.176-8.436-6.919-11.6-9.927-14.139-.306-.259-.6-.509-.887-.756q.469-.4.932-.811.386.22.783.443c3.978 2.241 8.928 5.03 11.857 13.61a15.962 15.962 0 01-.111 10.764zm2.916-2.254q-.8.622-1.613 1.251a16.337 16.337 0 00-.072-10.6c-2.98-8.729-7.99-11.552-12.016-13.82l-.581-.328q.406-.368.8-.748l.679.267c5.274 2.07 11.252 4.415 13.866 12.961a14.574 14.574 0 01-1.064 11.038zm.565-.443a14.825 14.825 0 00.777-10.746c-2.671-8.732-8.722-11.107-14.06-13.2l-.433-.17q.349-.34.693-.688l.684.192c6.377 1.784 13.6 3.806 15.864 12.184 1.109 4.112.1 7.718-2.023 11.233q-.738.615-1.503 1.215zm2.241-1.8a13.913 13.913 0 001.562-10.782c-2.32-8.6-9.633-10.643-16.086-12.448l-.41-.115q.3-.314.6-.636l.781.157c7.483 1.5 15.964 3.2 17.859 11.34.964 4.139-.345 7.751-2.855 11.263q-.708.629-1.452 1.241zm2.475-2.126c2.044-3.245 3.012-6.631 2.113-10.493-1.954-8.391-10.532-10.11-18.1-11.627l-.492-.1q.263-.293.52-.593l.955.136c9.009 1.276 18.325 2.595 19.858 10.461.745 3.828-.541 7.2-2.99 10.445a33.869 33.869 0 01-1.867 1.791zm3.383-3.407a12.279 12.279 0 001.755-8.921c-1.587-8.148-11.006-9.481-20.115-10.771l-.661-.094q.207-.248.411-.5l.592.057c10.17.977 20.685 1.987 21.863 9.566.609 3.938-.988 7.374-3.845 10.682z" transform="translate(-393.509 -511.022)" fill="url(#a)"/><path data-name="Path 12" d="M25.732 54.245V42.109h-4.648v-2.123H33v2.123h-4.666v12.136z" fill="#fff"/><path data-name="Path 13" d="M47.921 54.245l-1.422-3.344H39.53l-1.438 3.344h-2.6l6.449-14.259h2.1l6.469 14.259zm-7.53-5.347h5.247l-2.624-6.108z" fill="#fff"/><path data-name="Path 14" d="M56.052 54.245V39.986h2.584v12.136h6.668v2.123z" fill="#fff"/><path data-name="Path 15" d="M71.272 54.245V39.986h9.532v2.043h-7.009v3.945h6.589v2.043h-6.589v4.186h7.009v2.042z" fill="#fff"/><path data-name="Path 16" d="M96.786 39.986h2.423v14.259h-1.923l-7.69-9.993v9.993h-2.4V39.986h1.922l7.67 9.973z" fill="#fff"/><path data-name="Path 17" d="M109.661 54.245V42.109h-4.646v-2.123h11.916v2.123h-4.666v12.136z" fill="#fff"/><path data-name="Path 18" d="M122.719 54.245V39.986h2.584v12.136h6.669v2.123z" fill="#fff"/><path data-name="Path 19" d="M139.892 53.534a5.965 5.965 0 01-2.363-2.543 9.55 9.55 0 01-.01-7.77 5.847 5.847 0 012.353-2.533 7.857 7.857 0 017.23 0 5.788 5.788 0 012.343 2.533 9.653 9.653 0 01-.01 7.77 5.92 5.92 0 01-2.344 2.543 7.714 7.714 0 01-7.2 0zm6.679-2.533a6.075 6.075 0 001.1-3.905 6 6 0 00-1.1-3.875 4.205 4.205 0 00-6.168-.01 5.991 5.991 0 00-1.1 3.885 6.073 6.073 0 001.1 3.905 4.173 4.173 0 006.168 0z" fill="#fff"/><path data-name="Path 20" d="M168.8 46.535v6.849a9.831 9.831 0 01-2.364.761 14.165 14.165 0 01-2.823.28 7.894 7.894 0 01-3.825-.881 5.956 5.956 0 01-2.483-2.523 8.351 8.351 0 01-.861-3.925 8.261 8.261 0 01.861-3.885 6.009 6.009 0 012.453-2.523 7.592 7.592 0 013.735-.881 8.783 8.783 0 012.814.441 6.1 6.1 0 012.193 1.242l-.881 1.882a7.06 7.06 0 00-1.963-1.121 6.253 6.253 0 00-2.1-.341 4.146 4.146 0 00-3.334 1.322 5.79 5.79 0 00-1.132 3.865 5.865 5.865 0 001.162 3.955 4.351 4.351 0 003.464 1.332 10.223 10.223 0 002.764-.381v-3.6h-3.085v-1.862z" fill="#fff"/><path data-name="Path 21" d="M175.709 54.245V39.986h2.583v14.259z" fill="#fff"/><path data-name="Path 22" d="M195.836 55.222a15.508 15.508 0 001.5 1.382l-1.743 1.4a10.866 10.866 0 01-1.812-1.632 12.908 12.908 0 01-1.492-2.033c-.12.013-.313.02-.581.02a7.017 7.017 0 01-3.594-.891 5.964 5.964 0 01-2.363-2.543 9.547 9.547 0 01-.01-7.77 5.85 5.85 0 012.353-2.533 7.856 7.856 0 017.23 0 5.791 5.791 0 012.343 2.533 8.7 8.7 0 01.811 3.875 8.468 8.468 0 01-.971 4.185 5.812 5.812 0 01-2.753 2.544 7.476 7.476 0 001.082 1.463zm-7.21-4.286a4.172 4.172 0 006.168 0 6.073 6.073 0 001.1-3.905 6 6 0 00-1.1-3.875 4.2 4.2 0 00-6.168-.01 5.991 5.991 0 00-1.1 3.885 6.073 6.073 0 001.1 3.905z" fill="#fff"/><path data-name="Path 23" d="M206.879 53.985a7.066 7.066 0 01-2.433-1.262l.881-1.882a7.512 7.512 0 002.173 1.151 7.893 7.893 0 002.473.371 4.24 4.24 0 002.293-.521 1.643 1.643 0 00.811-1.462 1.351 1.351 0 00-.751-1.232 9.409 9.409 0 00-2.473-.811 10.281 10.281 0 01-3.906-1.5 3.156 3.156 0 01-1.222-2.684 3.844 3.844 0 01.681-2.243 4.542 4.542 0 011.933-1.542 7.018 7.018 0 012.894-.561 8.964 8.964 0 012.854.451 5.977 5.977 0 012.213 1.251l-.862 1.883a6.575 6.575 0 00-4.206-1.522 3.7 3.7 0 00-2.182.571 1.806 1.806 0 00-.8 1.552 1.418 1.418 0 00.711 1.282 8.42 8.42 0 002.434.821 17.4 17.4 0 012.9.911 4.336 4.336 0 011.723 1.262 3.052 3.052 0 01.6 1.933 3.738 3.738 0 01-.681 2.233 4.348 4.348 0 01-1.962 1.472 8.007 8.007 0 01-3.024.521 10.413 10.413 0 01-3.072-.443z" fill="#fff"/><g data-name="Group 10" fill="#fff"><path data-name="Path 24" d="M35.915 61.681h1.365v3.6h1.223v-3.6h1.365v-.979h-3.952z"/><path data-name="Path 25" d="M44.683 62.481h-1.854v-1.783h-1.184v4.583h1.184v-1.854h1.854v1.854h1.184v-4.583h-1.184z"/><path data-name="Path 26" d="M47.978 65.281h3.27v-.927h-2.092v-.94h1.953v-.927h-1.957v-.863h2.092v-.927h-3.27z"/><path data-name="Path 27" d="M59.303 62.854a3.881 3.881 0 00-.981-.325 4.206 4.206 0 01-.579-.158.7.7 0 01-.264-.151.273.273 0 01-.071-.193.384.384 0 01.2-.338.981.981 0 01.528-.125 2.089 2.089 0 01.669.113 2.471 2.471 0 01.637.325l.373-.856a1.989 1.989 0 00-.73-.364 3.363 3.363 0 00-.962-.139 2.427 2.427 0 00-.985.19 1.568 1.568 0 00-.669.528 1.279 1.279 0 00-.238.757 1.255 1.255 0 00.145.624 1.188 1.188 0 00.505.447 3.827 3.827 0 001.011.319 2.581 2.581 0 01.7.222.331.331 0 01.186.287.328.328 0 01-.206.3 1.323 1.323 0 01-.592.106 2.625 2.625 0 01-.756-.113 2.821 2.821 0 01-.711-.325l-.38.856a2.456 2.456 0 00.818.367 3.9 3.9 0 001.017.135 2.44 2.44 0 001.467-.383 1.234 1.234 0 00.522-1.052 1.193 1.193 0 00-.148-.608 1.23 1.23 0 00-.506-.446z"/><path data-name="Path 28" d="M64.173 61.592a1.952 1.952 0 011.159.406l.367-.856a1.842 1.842 0 00-.679-.367 2.834 2.834 0 00-.872-.135 2.54 2.54 0 00-1.245.293 2.015 2.015 0 00-.818.824 2.545 2.545 0 00-.286 1.227 2.574 2.574 0 00.286 1.235 2.011 2.011 0 00.818.828 2.541 2.541 0 001.245.293 2.845 2.845 0 00.872-.135 1.84 1.84 0 00.679-.367l-.367-.856a1.948 1.948 0 01-1.159.406 1.044 1.044 0 01-.849-.354 1.6 1.6 0 01-.3-1.049 1.575 1.575 0 01.3-1.04 1.048 1.048 0 01.849-.353z"/><path data-name="Rectangle 266" d="M67.617 60.7h1.21v4.583h-1.21z"/><path data-name="Path 29" d="M70.938 65.281h3.27v-.927h-2.092v-.94h1.956v-.927h-1.956v-.863h2.095v-.927h-3.27z"/><path data-name="Path 30" d="M79.075 63.288L76.996 60.7h-.882v4.583h1.126v-2.602l2.079 2.6h.895v-4.583h-1.139z"/><path data-name="Path 31" d="M84.584 61.592a1.955 1.955 0 011.159.406l.366-.856a1.848 1.848 0 00-.678-.367 2.838 2.838 0 00-.873-.135 2.538 2.538 0 00-1.245.293 2.02 2.02 0 00-.818.824 2.55 2.55 0 00-.286 1.227 2.58 2.58 0 00.286 1.235 2.016 2.016 0 00.818.828 2.539 2.539 0 001.245.293 2.849 2.849 0 00.873-.135 1.846 1.846 0 00.678-.367l-.366-.856a1.951 1.951 0 01-1.159.406 1.046 1.046 0 01-.85-.354 1.605 1.605 0 01-.3-1.049 1.58 1.58 0 01.3-1.04 1.05 1.05 0 01.85-.353z"/><path data-name="Path 32" d="M88.028 65.281h3.27v-.927h-2.092v-.94h1.957v-.927h-1.957v-.863h2.092v-.927h-3.27z"/><path data-name="Path 33" d="M99.76 60.929a2.74 2.74 0 00-2.44 0 1.984 1.984 0 00-.8.814 2.6 2.6 0 00-.283 1.243 2.65 2.65 0 00.28 1.249 1.941 1.941 0 00.8.821 2.744 2.744 0 002.443 0 1.93 1.93 0 00.8-.821 2.679 2.679 0 00.277-1.249 2.642 2.642 0 00-.277-1.243 1.942 1.942 0 00-.8-.814zm-.412 3.125a1.072 1.072 0 01-1.613 0 1.693 1.693 0 01-.29-1.071 1.668 1.668 0 01.29-1.062 1.079 1.079 0 011.613 0 1.659 1.659 0 01.293 1.059 1.683 1.683 0 01-.293 1.074z"/><path data-name="Path 34" d="M102.827 65.281h1.191v-1.86h1.88v-.94h-1.88v-.837h2.009v-.946h-3.2z"/><path data-name="Path 35" d="M113.211 63.513h.8v.85a2.9 2.9 0 01-.606.064 1.219 1.219 0 01-.962-.354 1.61 1.61 0 01-.312-1.088 1.572 1.572 0 01.3-1.053 1.142 1.142 0 01.911-.344 2.061 2.061 0 01.628.093 2.522 2.522 0 01.608.3l.38-.856a2.022 2.022 0 00-.718-.354 3.329 3.329 0 00-.937-.129 2.657 2.657 0 00-1.261.286 2.021 2.021 0 00-.837.817 2.5 2.5 0 00-.3 1.24 2.539 2.539 0 00.3 1.258 1.984 1.984 0 00.846.815 2.8 2.8 0 001.3.283 4.768 4.768 0 00.93-.09 3.691 3.691 0 00.82-.258v-2.3h-1.886z"/><path data-name="Path 36" d="M120.35 63.539a.718.718 0 00-.348-.18 1.333 1.333 0 00.7-.48 1.318 1.318 0 00.248-.8 1.268 1.268 0 00-.418-1.02 1.88 1.88 0 00-1.249-.358h-2.131v4.583h1.191v-1.783h.438a.459.459 0 01.483.258l.592 1.526h1.281l-.54-1.365a.975.975 0 00-.247-.381zm-.7-1.059a1.014 1.014 0 01-.56.119h-.76v-.985h.76a1.036 1.036 0 01.564.116.426.426 0 01.171.38.417.417 0 01-.177.371z"/><path data-name="Path 37" d="M126.402 60.929a2.741 2.741 0 00-2.44 0 1.983 1.983 0 00-.8.814 2.59 2.59 0 00-.283 1.243 2.654 2.654 0 00.28 1.249 1.947 1.947 0 00.8.821 2.745 2.745 0 002.443 0 1.929 1.929 0 00.8-.821 2.677 2.677 0 00.277-1.249 2.641 2.641 0 00-.277-1.243 1.941 1.941 0 00-.8-.814zm-.412 3.125a1.071 1.071 0 01-1.612 0 1.69 1.69 0 01-.29-1.071 1.666 1.666 0 01.29-1.062 1.079 1.079 0 011.612 0 1.656 1.656 0 01.293 1.059 1.68 1.68 0 01-.293 1.074z"/><path data-name="Path 38" d="M134.002 63.642l-.985-2.942h-.824l-1.024 2.89-.94-2.89h-1.23l1.635 4.583h.959l.978-2.723.959 2.723h.959l1.641-4.583h-1.146z"/><path data-name="Rectangle 267" d="M137.909 60.7h1.21v4.583h-1.21z"/><path data-name="Path 39" d="M144.192 63.288l-2.079-2.588h-.882v4.583h1.127v-2.602l2.079 2.6h.895v-4.583h-1.139z"/><path data-name="Path 40" d="M149.631 63.513h.8v.85a2.9 2.9 0 01-.605.064 1.218 1.218 0 01-.962-.354 1.61 1.61 0 01-.312-1.088 1.574 1.574 0 01.3-1.053 1.143 1.143 0 01.911-.344 2.059 2.059 0 01.628.093 2.528 2.528 0 01.608.3l.38-.856a2.021 2.021 0 00-.718-.354 3.327 3.327 0 00-.937-.129 2.657 2.657 0 00-1.261.286 2.02 2.02 0 00-.837.817 2.5 2.5 0 00-.3 1.24 2.539 2.539 0 00.3 1.258 1.982 1.982 0 00.846.815 2.8 2.8 0 001.3.283 4.765 4.765 0 00.93-.09 3.691 3.691 0 00.821-.258v-2.3h-1.886z"/><path data-name="Path 41" d="M156.39 61.681h1.365v3.6h1.223v-3.6h1.365v-.979h-3.953z"/><path data-name="Path 42" d="M165.27 60.929a2.74 2.74 0 00-2.44 0 1.981 1.981 0 00-.8.814 2.586 2.586 0 00-.283 1.243 2.656 2.656 0 00.28 1.249 1.945 1.945 0 00.8.821 2.745 2.745 0 002.443 0 1.93 1.93 0 00.795-.821 2.68 2.68 0 00.277-1.249 2.644 2.644 0 00-.277-1.243 1.943 1.943 0 00-.795-.814zm-.412 3.125a1.071 1.071 0 01-1.612 0 1.69 1.69 0 01-.29-1.071 1.665 1.665 0 01.29-1.062 1.078 1.078 0 011.612 0 1.656 1.656 0 01.293 1.059 1.68 1.68 0 01-.289 1.074z"/><path data-name="Path 43" d="M170.519 63.513h.8v.85a2.9 2.9 0 01-.605.064 1.219 1.219 0 01-.962-.354 1.61 1.61 0 01-.312-1.088 1.572 1.572 0 01.3-1.053 1.143 1.143 0 01.911-.344 2.06 2.06 0 01.628.093 2.533 2.533 0 01.608.3l.38-.856a2.02 2.02 0 00-.717-.354 3.328 3.328 0 00-.937-.129 2.659 2.659 0 00-1.262.286 2.024 2.024 0 00-.837.817 2.507 2.507 0 00-.3 1.24 2.545 2.545 0 00.3 1.258 1.99 1.99 0 00.846.815 2.8 2.8 0 001.3.283 4.77 4.77 0 00.931-.09 3.7 3.7 0 00.821-.258v-2.3h-1.886z"/><path data-name="Path 44" d="M174.459 65.281h3.27v-.927h-2.093v-.94h1.957v-.927h-1.957v-.863h2.093v-.927h-3.27z"/><path data-name="Path 45" d="M179.408 61.681h1.365v3.6h1.223v-3.6h1.365v-.979h-3.952z"/><path data-name="Path 46" d="M188.175 62.481h-1.854v-1.783h-1.185v4.583h1.185v-1.854h1.854v1.854h1.184v-4.583h-1.184z"/><path data-name="Path 47" d="M191.471 65.281h3.27v-.927h-2.092v-.94h1.957v-.927h-1.957v-.863h2.092v-.927h-3.27z"/><path data-name="Path 48" d="M200.09 63.919a.976.976 0 00-.245-.38.715.715 0 00-.348-.18 1.284 1.284 0 00.946-1.281 1.269 1.269 0 00-.418-1.02 1.881 1.881 0 00-1.249-.358h-2.131v4.583h1.191V63.5h.438a.46.46 0 01.483.258l.593 1.526h1.281zm-.946-1.439a1.016 1.016 0 01-.56.119h-.76v-.985h.76a1.033 1.033 0 01.563.116.425.425 0 01.171.38.418.418 0 01-.174.371z"/></g></g></g></svg>