<svg xmlns="http://www.w3.org/2000/svg" width="54.238" height="56.492"><defs><linearGradient id="a" x1=".5" x2=".5" y2="1" gradientUnits="objectBoundingBox"><stop offset="0" stop-color="#ff0164"/><stop offset="1" stop-color="#8624db"/></linearGradient></defs><path data-name="Union 29" d="M17901.422 5574.674a15.322 15.322 0 00-1.586-1.284 1.519 1.519 0 00-1.713-.032 7.391 7.391 0 00-1.664 1.328 2.194 2.194 0 01-2.219.6 1.64 1.64 0 01-.453-.2 250.623 250.623 0 01-3.107-1.795 2.269 2.269 0 01-.979-2.83 3.091 3.091 0 00-2.049-4.241 2.606 2.606 0 00-.676-.085 1.6 1.6 0 01-1.631-1.14 9.425 9.425 0 01-.387-1.819 13.3 13.3 0 01.168-4.553 3.509 3.509 0 01.369-1.03 1.492 1.492 0 011.375-.83 2.906 2.906 0 002.477-1.223 3.072 3.072 0 00.354-3.109 2.249 2.249 0 01.979-2.824l1.557-.894a143.07 143.07 0 001.676-.958 2.287 2.287 0 012.721.355 15.568 15.568 0 001.414 1.153 1.687 1.687 0 002.1.021 9.43 9.43 0 001.3-1.031 2.365 2.365 0 012.939-.4c.959.6 1.955 1.14 2.938 1.709a2.282 2.282 0 011.033 2.947 3.088 3.088 0 002.121 4.183 3.86 3.86 0 00.617.073 1.688 1.688 0 011.713 1.308 10.621 10.621 0 01.314 1.612 13.847 13.847 0 01-.213 4.806 1.844 1.844 0 01-1.408 1.605c-.281.059-.582.033-.871.077a3.039 3.039 0 00-2.363 3.932 3.071 3.071 0 01.229 1.658 2.17 2.17 0 01-1.029 1.476 123.447 123.447 0 01-3.3 1.892 5.673 5.673 0 01-1.049.343 2.9 2.9 0 01-1.697-.8zm-.2-3.711a20.09 20.09 0 011.809 1.379c.121.091.188.129.332.045.756-.447 1.52-.881 2.3-1.328-.09-.42-.193-.815-.24-1.217a5.865 5.865 0 014.711-6.444.269.269 0 00.25-.265 10.878 10.878 0 00-.014-3.368c-.021-.175-.086-.227-.25-.253a5.883 5.883 0 01-4.646-6.819c.053-.279.125-.551.2-.842-.791-.454-1.564-.907-2.348-1.348-.064-.039-.191.026-.273.078-.533.388-1.039.836-1.6 1.178a4.1 4.1 0 01-4.129.291 8.678 8.678 0 01-2.174-1.5c-.068-.059-.211-.124-.268-.084-.832.453-1.65.926-2.479 1.4l.082.292a5.484 5.484 0 01.164 2.272 5.829 5.829 0 01-4.721 5.1.334.334 0 00-.219.22 11.026 11.026 0 00-.01 3.4c.025.162.1.207.246.246a9.749 9.749 0 011.3.4 5.926 5.926 0 013.367 6.353c-.049.3-.139.6-.207.913.8.461 1.576.92 2.314 1.347.617-.46 1.189-.939 1.8-1.334a4.513 4.513 0 012.459-.8 4.225 4.225 0 012.243.688zm-39.447 3.685c-1.066 0-1.4-.214-1.773-1.2v-6.333c.018-.162.027-.324.041-.479.041-.356.068-.718.111-1.075a23.248 23.248 0 0114.572-19.326l.439-.18.25-.1.611-.252-.51-.428a1.143 1.143 0 00-.123-.1 2.418 2.418 0 00-.225-.188 14.231 14.231 0 01-4.07-4.8 13.968 13.968 0 01-1.461-7.959 13.663 13.663 0 013.125-7.415 13.033 13.033 0 0118.719-1.567 14.07 14.07 0 01-.365 21.281l-.186.162a9.761 9.761 0 01-1.953 1.432 12.345 12.345 0 01-3.906 1.159c-.939.122-1.9.182-2.836.24l-.627.038a19.328 19.328 0 00-10.959 4.255 21.044 21.044 0 00-7.885 16.384v2.935c0 .071.006.136.01.208 0 .033.008.064.008.1l.031.37h6.617c5.691 0 10.463 0 15.283-.007a.207.207 0 01.1.013.247.247 0 01.043.071 17.315 17.315 0 001.572 2.766zm10.539-40.912a10.993 10.993 0 003.08 7.715 10.34 10.34 0 007.465 3.219h.01a10.755 10.755 0 0010.559-10.907 11.012 11.012 0 00-3.092-7.712 10.351 10.351 0 00-7.467-3.2h-.008a10.749 10.749 0 00-10.548 10.885zm26.643 33.192a5.3 5.3 0 11.01 0zm.01-8.148a2.567 2.567 0 10.01 0z" transform="translate(-17859.5 -5519.501)" stroke="rgba(0,0,0,0)" stroke-miterlimit="10" fill="url(#a)"/></svg>