<svg xmlns="http://www.w3.org/2000/svg" width="49" height="60"><defs><linearGradient id="a" x1=".5" x2=".5" y2="1" gradientUnits="objectBoundingBox"><stop offset="0" stop-color="#ff0164"/><stop offset="1" stop-color="#8624db"/></linearGradient></defs><path data-name="Union 22" d="M34.777 59.657a1.183 1.183 0 010-1.657 1.144 1.144 0 011.634 0 1.183 1.183 0 010 1.657 1.144 1.144 0 01-1.634 0zm-11.088.006L22.4 58.375a14.815 14.815 0 01-4.262-9.39H1.156A1.164 1.164 0 010 47.813v-8.28a11.266 11.266 0 016.721-10.342 35.169 35.169 0 014.6-16.309A34.56 34.56 0 0123.925.155a1.142 1.142 0 011.15 0 34.558 34.558 0 0112.606 12.728 35.169 35.169 0 014.6 16.309A11.266 11.266 0 0149 39.533v8.279a1.164 1.164 0 01-1.156 1.172H36.75v6.048a1.156 1.156 0 11-2.311 0v-6.047h-3.576a14.814 14.814 0 01-4.262 9.39l-1.289 1.288a1.145 1.145 0 01-1.622 0zm.333-2.958l.478.478.478-.478a12.439 12.439 0 003.566-7.721h-8.088a12.437 12.437 0 003.566 7.721zM42.3 45.469a3.543 3.543 0 01-.2 1.172h4.59v-7.108a8.941 8.941 0 00-4.39-7.716zM9.014 30.3v15.169a1.165 1.165 0 001.156 1.172h28.66a1.165 1.165 0 001.156-1.172V30.3a32.754 32.754 0 00-4.73-16.944H13.744q-.709 1.172-1.319 2.4h4.183a1.172 1.172 0 010 2.344h-5.233a32.721 32.721 0 00-2.361 12.2zm-6.7 9.23v7.107H6.9a3.541 3.541 0 01-.2-1.172V31.817a8.941 8.941 0 00-4.389 7.716zM15.3 11.016h18.4a32.061 32.061 0 00-9.2-8.485 32.061 32.061 0 00-9.2 8.485zM12.25 56.9v-3.61a1.156 1.156 0 112.311 0v3.61a1.156 1.156 0 11-2.311 0zm8.156-17.075a10.481 10.481 0 01-1.786-.983 10.729 10.729 0 010-17.686 10.474 10.474 0 011.786-.983 10.416 10.416 0 018.187 0 10.471 10.471 0 011.786.983 10.729 10.729 0 010 17.686 10.478 10.478 0 01-1.786.983 10.418 10.418 0 01-8.187 0zm-4.114-9.849a8.2 8.2 0 108.2-8.3 8.264 8.264 0 00-8.2 8.301z" fill="url(#a)"/></svg>